<?xml version="1.0" encoding="UTF-8"?> <svg xmlns="http://www.w3.org/2000/svg" width="50" height="67" viewBox="0 0 50 67" fill="none"><g clip-path="url(#clip0_1756_255)"><path d="M37.771 30.0364H39.9945V30.7776C39.9945 40.7835 39.9945 50.7894 39.9945 60.7954C39.9945 64.3623 37.6431 66.71 34.0762 66.7118C26.1554 66.7118 18.2335 66.7118 10.3102 66.7118C6.78964 66.7118 4.41602 64.353 4.41602 60.8398C4.41602 46.2238 4.41602 31.6064 4.41602 16.9879C4.41602 13.4673 6.77852 11.1159 10.3028 11.1104H18.8264V13.3339H17.4552C15.0464 13.3339 12.6376 13.3339 10.2287 13.3339C8.0515 13.3339 6.64697 14.7218 6.64511 16.8804C6.64511 31.5669 6.64511 46.2534 6.64511 60.9399C6.64511 63.0967 8.04965 64.4846 10.2287 64.4846C18.1964 64.4846 26.1641 64.4846 34.1318 64.4846C36.3998 64.4846 37.7728 63.1171 37.7728 60.8565C37.7728 50.8703 37.7728 40.886 37.7728 30.9036L37.771 30.0364Z" fill="#2D5FDB"></path><path d="M22.2044 47.8154C19.3558 47.8154 16.5084 47.8154 13.6623 47.8154C12.569 47.8154 12.1985 47.4448 12.1985 46.3645C12.1985 42.8921 12.1892 39.4197 12.1985 35.9473C12.2036 35.5583 12.2914 35.1749 12.456 34.8225C13.0897 33.4847 13.7716 32.1728 14.4201 30.8424C14.5249 30.5845 14.7082 30.3661 14.944 30.2181C15.1797 30.0701 15.4561 30.0001 15.7339 30.0178C20.0401 30.0314 24.3458 30.0314 28.6508 30.0178C28.9286 29.9985 29.2054 30.0675 29.4417 30.2149C29.678 30.3624 29.8616 30.5807 29.9664 30.8387C30.6149 32.1691 31.3005 33.481 31.9324 34.8188C32.0968 35.1713 32.1846 35.5547 32.1899 35.9436C32.2103 39.416 32.2029 42.8903 32.2011 46.3627C32.2011 47.4467 31.8305 47.8154 30.7372 47.8154C27.896 47.8179 25.0517 47.8179 22.2044 47.8154ZM14.4535 45.54H29.9534V36.7366H26.6515C26.6515 37.7706 26.6515 38.7619 26.6515 39.7532C26.6515 40.7446 26.2586 41.1392 25.2599 41.1411C23.2451 41.1411 21.2304 41.1411 19.2156 41.1411C18.1279 41.1411 17.7629 40.7705 17.7592 39.6828C17.7592 38.697 17.7592 37.7113 17.7592 36.7292H14.4535V45.54ZM24.3686 38.9046V36.7422H20.0327V38.9046H24.3686ZM23.5607 32.2803H20.8462L20.3088 34.4519H24.1C23.9147 33.6941 23.7386 32.9863 23.5607 32.2803ZM18.5485 32.258C17.8185 32.258 17.1551 32.258 16.4936 32.258C16.388 32.258 16.2286 32.2951 16.1916 32.3674C15.8339 33.0381 15.5004 33.7219 15.1317 34.4538H18C18.1779 33.733 18.354 33.0215 18.5485 32.2488V32.258ZM29.2864 34.4631C28.9306 33.7478 28.6341 33.1289 28.3099 32.5249C28.2732 32.4595 28.2227 32.4029 28.1619 32.359C28.1011 32.3152 28.0314 32.2852 27.9578 32.271C27.2796 32.2451 26.6014 32.258 25.8566 32.258L26.4124 34.4631H29.2864Z" fill="#2D5FDB"></path><path d="M50.0005 14.4918C49.9928 16.4012 49.6072 18.2903 48.866 20.05C48.1248 21.8098 47.0427 23.4054 45.6819 24.745C44.3211 26.0846 42.7087 27.1416 40.9375 27.8551C39.1664 28.5685 37.2715 28.9244 35.3621 28.9022C27.4093 28.8447 21.0184 22.2612 21.0944 14.1971C21.163 6.32395 27.7465 -0.0705835 35.7327 -0.00387733C43.5985 0.0609759 50.0468 6.61301 50.0005 14.4918ZM23.318 14.4918C23.318 21.1846 28.8045 26.6545 35.5474 26.6768C42.2403 26.6971 47.7769 21.1883 47.7769 14.4992C47.7769 7.75257 42.3292 2.22522 35.6531 2.2141C34.0333 2.2001 32.427 2.50799 30.9272 3.11991C29.4275 3.73182 28.0643 4.63556 26.9167 5.77867C25.7691 6.92178 24.86 8.28147 24.2423 9.7788C23.6245 11.2761 23.3103 12.8813 23.318 14.501V14.4918Z" fill="#2D5FDB"></path><path d="M2.14026 51.1194H0.00195312V22.2949H2.14026V51.1194Z" fill="#2D5FDB"></path><path d="M11.1211 54.5156H33.2731V56.6706H11.1211V54.5156Z" fill="#2D5FDB"></path><path d="M17.7959 50.0684H33.2699V52.2178H17.7959V50.0684Z" fill="#2D5FDB"></path><path d="M12.1588 18.8703H10.0205V16.7153H12.1588V18.8703Z" fill="#2D5FDB"></path><path d="M14.4346 18.8447V16.7305H16.597V18.8447H14.4346Z" fill="#2D5FDB"></path><path d="M2.14016 55.568H0V53.4297H2.14016V55.568Z" fill="#2D5FDB"></path><path d="M23.2636 62.2445H21.1309V60.0747H23.2636V62.2445Z" fill="#2D5FDB"></path><path d="M43.3279 12.5762C43.2797 14.6385 42.3681 16.7157 41.1136 18.6706C39.8179 20.6501 38.2596 22.4447 36.4812 24.0052C35.8309 24.5852 35.3343 24.6426 34.7561 24.1293C32.2232 21.8817 30.0274 19.3599 28.6599 16.2191C27.3999 13.3248 27.3166 10.462 29.1825 7.76595C30.1268 6.40653 31.4829 5.38656 33.051 4.85643C34.619 4.32631 36.3159 4.3141 37.8913 4.82161C41.1321 5.84444 43.3242 8.85177 43.3279 12.5762ZM35.5325 21.8687C37.2354 20.2159 38.7492 18.5501 39.7832 16.5378C40.3436 15.4796 40.7492 14.3464 40.9876 13.1729C41.4193 10.8418 40.567 8.91107 38.5899 7.61401C36.6128 6.31694 34.5134 6.30582 32.5215 7.60103C30.5296 8.89625 29.6809 10.827 30.0793 13.1599C30.6963 16.7639 33.0588 19.3098 35.5325 21.8687Z" fill="#2D5FDB"></path><path d="M35.5789 8.89605C36.2374 8.90153 36.8795 9.1018 37.4243 9.47161C37.9691 9.84142 38.3923 10.3642 38.6405 10.9741C38.8886 11.584 38.9507 12.2538 38.8189 12.8989C38.6871 13.5441 38.3673 14.1358 37.8997 14.5994C37.4322 15.0631 36.8379 15.378 36.1917 15.5045C35.5454 15.6309 34.8763 15.5633 34.2684 15.31C33.6606 15.0568 33.1413 14.6293 32.776 14.0814C32.4108 13.5336 32.2158 12.8898 32.2158 12.2314C32.217 11.7914 32.305 11.3559 32.4748 10.95C32.6446 10.5441 32.8928 10.1756 33.2052 9.8658C33.5177 9.55597 33.8881 9.31084 34.2955 9.14443C34.7028 8.97802 35.1389 8.89361 35.5789 8.89605ZM36.6536 12.2165C36.6535 11.9953 36.5875 11.7792 36.4639 11.5957C36.3402 11.4123 36.1647 11.2699 35.9597 11.1867C35.7547 11.1036 35.5296 11.0835 35.3131 11.129C35.0966 11.1745 34.8987 11.2836 34.7445 11.4422C34.5904 11.6009 34.487 11.8019 34.4478 12.0196C34.4085 12.2373 34.435 12.4618 34.524 12.6643C34.613 12.8668 34.7604 13.0381 34.9473 13.1564C35.1343 13.2747 35.3522 13.3346 35.5734 13.3283C35.8627 13.3201 36.1375 13.1994 36.3392 12.9917C36.541 12.7841 36.6538 12.506 36.6536 12.2165Z" fill="#2D5FDB"></path></g><defs><clipPath id="clip0_1756_255"><rect width="50" height="66.721" fill="white"></rect></clipPath></defs></svg> 