<?xml version="1.0" encoding="UTF-8"?> <svg xmlns="http://www.w3.org/2000/svg" width="60" height="60" viewBox="0 0 60 60" fill="none"><g clip-path="url(#clip0_1756_269)"><path d="M59.98 29.9817C59.98 35.3525 59.97 40.725 59.9917 46.0958C59.9917 46.8536 59.7086 47.2716 59.0191 47.5647C49.6364 51.5738 40.2598 55.5962 30.8893 59.632C30.6116 59.7647 30.3078 59.8336 30 59.8336C29.6922 59.8336 29.3884 59.7647 29.1107 59.632C19.7569 55.6018 10.3964 51.5871 1.02921 47.588C0.28645 47.2716 -0.0016582 46.8403 7.17445e-06 46.0326C0.0199916 35.2898 0.0199916 24.5471 7.17445e-06 13.8043C7.17445e-06 12.9949 0.289782 12.5669 1.03087 12.2505C10.4003 8.25362 19.7607 4.23897 29.1124 0.206549C29.39 0.0737942 29.6939 0.00488281 30.0017 0.00488281C30.3094 0.00488281 30.6133 0.0737942 30.891 0.206549C40.1871 4.2101 49.4898 8.19644 58.7993 12.1656C59.6802 12.5403 60.0083 13.0349 60 13.9975C59.9584 19.3217 59.98 24.6509 59.98 29.9817ZM57.9816 29.9367C57.9816 24.8574 57.9732 19.778 57.9916 14.6969C57.9916 14.1973 57.8633 13.9392 57.377 13.7327C48.4107 9.909 39.4482 6.07864 30.4896 2.24163C30.1741 2.12259 29.8259 2.12259 29.5104 2.24163C20.5307 6.07198 11.5516 9.91011 2.57301 13.756C2.14001 13.9409 2.00012 14.1507 2.00179 14.6187C2.01511 24.8196 2.01511 35.0211 2.00179 45.2232C2.00179 45.6529 2.1117 45.8694 2.53304 46.0559C11.5383 49.8984 20.5374 53.7471 29.5304 57.6019C29.8268 57.7183 30.1557 57.7218 30.4547 57.6119C39.4565 53.7715 48.4556 49.9223 57.452 46.0642C57.8633 45.8977 57.9932 45.6812 57.9916 45.2415C57.9749 40.1388 57.9816 35.0378 57.9816 29.9367Z" fill="#0D815E"></path><path d="M44.9883 28.06C44.9883 31.932 44.9733 35.804 45 39.676C45 40.437 44.7119 40.855 44.0257 41.1465C37.2599 44.0276 30.499 46.9225 23.7432 49.8314C23.5108 49.9428 23.2565 50.0006 22.9988 50.0006C22.7411 50.0006 22.4867 49.9428 22.2544 49.8314C20.1626 48.9099 18.0615 48.0106 15.9509 47.1335C15.2848 46.8587 14.985 46.4673 14.9933 45.7196C15.0233 43.2648 15.0183 40.8067 14.9933 38.352C14.9933 37.6725 15.2548 37.2795 15.8793 37.0197C17.7612 36.2403 19.6231 35.4109 21.5033 34.6299C21.8946 34.4633 22.0129 34.2652 22.0029 33.8472C21.9812 31.6822 22.0029 29.5172 21.9846 27.3522C21.9846 26.6744 22.246 26.2814 22.8705 26.0199C24.7524 25.2405 26.6143 24.4112 28.4945 23.6301C28.8859 23.4636 29.0041 23.2637 28.9941 22.8474C28.9725 20.6824 28.9941 18.5174 28.9758 16.3524C28.9758 15.6746 29.2389 15.2849 29.8634 15.0201C32.0118 14.1319 34.1512 13.2154 36.2818 12.2706C36.4935 12.1645 36.7265 12.1078 36.9633 12.1046C37.2001 12.1015 37.4345 12.1519 37.649 12.2523C39.8007 13.1949 41.959 14.1197 44.124 15.0268C44.7502 15.2899 44.9867 15.7079 44.9833 16.3774C44.98 20.2744 44.9883 24.1664 44.9883 28.06ZM42.9716 17.5865C41.4394 18.2526 40.0005 18.8871 38.5384 19.4733C38.0904 19.6515 37.9804 19.8847 37.9821 20.3427C37.9965 27.1707 37.9999 33.9987 37.9921 40.8267V41.5279L42.9716 39.3962V17.5865ZM35.9937 28.5779C34.4332 29.2441 32.996 29.8836 31.5321 30.4814C31.1324 30.648 30.9826 30.8428 30.9842 31.2925C31.0042 35.4975 30.9959 39.7026 30.9975 43.9077C30.9975 44.0875 31.0142 44.2674 31.0259 44.5205C32.5497 43.871 34.0119 43.2315 35.4874 42.627C35.8704 42.4704 36.007 42.2789 36.0053 41.8509C35.9853 37.7708 35.9937 33.6906 35.9937 29.6105V28.5779ZM28.9991 39.5694C27.3437 40.2805 25.7633 40.9533 24.1928 41.6528C24.0846 41.7027 24.0146 41.9525 24.0113 42.1124C23.9947 42.9651 24.003 43.8177 24.003 44.6721V47.5282C25.6467 46.8271 27.1922 46.1726 28.731 45.4998C28.7982 45.4642 28.8563 45.4137 28.9011 45.3522C28.9458 45.2908 28.9759 45.2199 28.9891 45.145C29.0008 43.3231 28.9958 41.4962 28.9958 39.5694H28.9991ZM22.0045 47.5265C22.0045 45.613 22.0129 43.7894 21.9896 41.9658C21.9896 41.8243 21.7881 41.6328 21.6332 41.5562C20.7439 41.1531 19.8412 40.7818 18.9436 40.3904L17.0101 39.5577C17.0101 41.4696 17.0101 43.2798 17.0201 45.0884C17.0261 45.1638 17.0496 45.2367 17.0886 45.3014C17.1276 45.3662 17.1811 45.4209 17.2449 45.4615C18.7937 46.1642 20.3575 46.8287 21.9996 47.5315L22.0045 47.5265ZM35.9937 25.5303C35.9937 23.6201 36.002 21.7965 35.9787 19.9729C35.9787 19.8314 35.7755 19.6399 35.6223 19.5633C34.733 19.1586 33.8303 18.7855 32.9327 18.3975L30.9975 17.5865C30.9975 19.495 30.9975 21.3036 31.0075 23.1122C31.0142 23.1876 31.0379 23.2605 31.0768 23.3254C31.1158 23.3903 31.1689 23.4455 31.2324 23.4869C32.7878 24.1713 34.3499 24.8342 35.992 25.5353L35.9937 25.5303ZM28.9991 36.5217C28.9991 34.6166 29.0091 32.808 28.9825 30.9994C28.9825 30.8428 28.7693 30.6197 28.6027 30.5447C27.1988 29.9202 25.7816 29.3207 24.3677 28.7128C24.2486 28.677 24.1266 28.6519 24.003 28.6379C24.003 30.4798 24.003 32.2684 24.0146 34.0553C24.0212 34.1398 24.0472 34.2216 24.0905 34.2943C24.1339 34.3671 24.1934 34.4289 24.2645 34.475C25.7983 35.1728 27.3454 35.8273 28.9958 36.5334L28.9991 36.5217ZM18.5572 38.0439C19.6164 38.4985 20.5557 38.8116 21.3884 39.2863C22.4825 39.9041 23.4701 39.9341 24.5742 39.3046C25.4352 38.805 26.3961 38.4969 27.4486 38.0439C25.9332 37.4044 24.5676 36.8148 23.2019 36.2386C23.0903 36.1918 22.9654 36.187 22.8506 36.2253C21.4566 36.8065 20.0744 37.4044 18.5539 38.0555L18.5572 38.0439ZM32.558 16.061C34.0568 16.7072 35.4208 17.2984 36.7897 17.8746C36.9238 17.9254 37.0719 17.9254 37.2061 17.8746C38.5767 17.2984 39.9406 16.7088 41.4428 16.061C40.5301 15.6663 39.6974 15.3948 38.9597 14.9668C37.6507 14.2058 36.4217 14.1242 35.0927 14.9385C34.3449 15.3998 33.4823 15.6646 32.5547 16.0643L32.558 16.061ZM34.4549 27.0524C32.931 26.398 31.5638 25.8101 30.1948 25.2205C30.1027 25.1758 29.9977 25.1652 29.8984 25.1905C28.4928 25.7818 27.0906 26.3846 25.5551 27.0425C27.0756 27.6969 28.4529 28.2931 29.8384 28.8744C29.9761 28.9155 30.124 28.9055 30.2548 28.846C31.6054 28.2898 32.9544 27.7053 34.4515 27.0608L34.4549 27.0524Z" fill="#0D815E"></path><path d="M50.7271 41.2964L52.8604 42.2123L52.0743 44.0443L49.9443 43.1283L50.7271 41.2964Z" fill="#0D815E"></path><path d="M56.3507 45.8778L54.2207 44.9618C54.4905 44.3306 54.742 43.7461 55.0068 43.1299L57.1384 44.0508L56.3507 45.8778Z" fill="#0D815E"></path><path d="M10.0558 43.1163L7.92082 44.0289L7.13477 42.207L9.26478 41.2827C9.52957 41.9006 9.77438 42.4651 10.0558 43.1163Z" fill="#0D815E"></path><path d="M5.78084 44.9467L3.6475 45.8626L2.85645 44.0407L4.98313 43.1147L5.78084 44.9467Z" fill="#0D815E"></path><path d="M12.1988 42.1954C11.9357 41.5859 11.6992 41.0197 11.4111 40.3635L13.5428 39.4492C13.8109 40.0687 14.0591 40.645 14.3339 41.2811L12.1988 42.1954Z" fill="#0D815E"></path><path d="M47.8016 42.212L45.6699 41.2977C45.9364 40.6766 46.1695 40.112 46.4526 39.4658L48.5843 40.3784C48.3179 41.003 48.0697 41.5858 47.8016 42.212Z" fill="#0D815E"></path><path d="M29.0508 4.32178H30.9426V6.48676H29.0508V4.32178Z" fill="#0D815E"></path><path d="M29.0303 10.8848V8.75977H30.9638V10.8864L29.0303 10.8848Z" fill="#0D815E"></path></g><defs><clipPath id="clip0_1756_269"><rect width="60" height="59.8318" fill="white"></rect></clipPath></defs></svg> 