<?xml version="1.0" encoding="UTF-8"?> <svg xmlns="http://www.w3.org/2000/svg" width="60" height="64" viewBox="0 0 60 64" fill="none"><g clip-path="url(#clip0_1756_280)"><path d="M10.1669 63.0363C10.1669 62.2739 10.1669 61.5115 10.1669 60.7491C10.1854 60.3676 10.1007 59.9881 9.92181 59.6506C9.74293 59.3131 9.47645 59.0301 9.15037 58.8312C8.30325 58.2721 7.41376 57.7604 6.62764 57.1251C5.96349 56.588 5.4315 55.8917 4.81988 55.2868C4.64856 55.106 4.42843 54.9789 4.18623 54.9209C3.807 54.8892 3.42607 54.8829 3.046 54.9022C2.64671 54.9029 2.2512 54.8249 1.88207 54.6726C1.51294 54.5204 1.17742 54.2969 0.894684 54.015C0.611949 53.733 0.387536 53.3981 0.234271 53.0294C0.0810064 52.6607 0.00189162 52.2654 0.00144704 51.8661C-0.0171897 50.7225 0.00144704 49.5789 0.00144704 48.4353C0.00144704 36.1723 0.00144704 23.91 0.00144704 11.6481C0.00144704 9.31178 1.18742 8.13428 3.51531 8.13428H18.2722V10.1674H3.43737C2.35306 10.1674 2.03793 10.4808 2.03793 11.5617V51.0834C2.03793 52.7438 2.30732 52.9843 4.03714 52.8268C4.06425 52.4879 4.06763 52.1304 4.12524 51.7831C4.44206 49.8449 5.48064 48.415 7.27315 47.617C7.95084 47.3137 8.1711 46.9393 8.15754 46.1938C8.1118 43.3136 8.12365 40.4334 8.14737 37.5531C8.15807 36.809 8.4419 36.0947 8.94486 35.5461C9.44782 34.9976 10.1349 34.653 10.8753 34.5779C11.6157 34.5028 12.358 34.7024 12.9608 35.1389C13.5637 35.5753 13.9851 36.2181 14.145 36.9449C14.2156 37.3612 14.2462 37.7833 14.2365 38.2054C14.2517 38.7137 14.2365 39.222 14.2365 39.7794C16.1273 39.3795 17.4556 40.0301 18.2095 41.8531C19.6835 41.4313 20.9389 41.7955 21.8013 42.951C22.5485 42.8731 23.2228 42.6833 23.8649 42.7613C25.366 42.9409 26.4367 44.2251 26.43 45.7635C26.4215 47.9846 26.3588 50.2075 26.3198 52.4286C26.3198 52.5523 26.3198 52.676 26.3198 52.8556C26.7449 52.8766 27.1708 52.8738 27.5956 52.8471C28.1717 52.781 28.4698 52.3524 28.4715 51.6459C28.4715 49.1271 28.4715 46.6072 28.4715 44.0862V38.6697H30.5046V39.3321C30.5046 43.3983 30.5046 47.4645 30.5046 51.5307C30.5046 53.6773 29.2661 54.9005 27.1026 54.9039H26.0454C25.4981 56.344 24.9475 57.7147 24.468 59.1107C24.3376 59.4919 24.4087 59.9477 24.4053 60.3679C24.4053 61.2573 24.4053 62.1468 24.4053 63.0363H22.3723C22.3384 60.7389 22.3723 58.5127 23.3447 56.2932C24.8238 52.9267 24.3986 49.2655 24.3867 45.6974C24.3867 44.9045 23.465 44.4403 22.8704 44.918C22.5915 45.1864 22.4219 45.5485 22.3943 45.9346C22.3282 46.8749 22.3723 47.822 22.3723 48.747H20.368C20.3561 48.6538 20.3459 48.6115 20.3459 48.5776C20.3459 47.3916 20.3459 46.2057 20.3459 45.0197C20.3459 44.2081 19.9834 43.7456 19.3548 43.7287C18.7262 43.7117 18.3162 44.1912 18.3128 45.0332C18.3128 45.938 18.3128 46.841 18.3128 47.744H16.2797V46.9427C16.2797 45.5449 16.2899 44.1472 16.2713 42.7494C16.2647 42.503 16.1689 42.2674 16.0016 42.0864C15.8343 41.9054 15.607 41.7914 15.3619 41.7655C15.1168 41.7396 14.8707 41.8036 14.6692 41.9457C14.4678 42.0877 14.3249 42.2981 14.267 42.5376C14.2441 42.727 14.2373 42.918 14.2467 43.1086C14.2467 44.3098 14.2467 45.511 14.2467 46.7343H12.2V42.7003C12.2 41.028 12.2 39.3541 12.2 37.6819C12.2 37.0313 11.7646 36.6061 11.1835 36.6078C10.6023 36.6095 10.2042 37.033 10.1669 37.6853C10.1584 37.8547 10.1669 38.0242 10.1669 38.1936V51.8204H8.11349V49.4739C5.73138 50.6598 5.41794 53.7095 7.46459 55.2343C8.39473 55.9306 9.39603 56.5338 10.3567 57.1912C11.585 58.0298 12.2 59.2039 12.2 60.6949C12.2 61.4776 12.2 62.262 12.2 63.0448L10.1669 63.0363Z" fill="#473C3C"></path><path d="M40.1449 36.6023H24.7696C22.0165 36.6023 20.3442 34.925 20.3408 32.1701C20.3408 31.2603 20.3697 30.3488 20.3239 29.4407C20.2991 29.143 20.1644 28.8652 19.9461 28.6614C18.5907 27.5381 17.2116 26.4588 15.8426 25.3525C15.0429 24.7087 15.048 24.0903 15.8613 23.4363C17.1641 22.3876 18.4602 21.3287 19.7868 20.3121C19.9747 20.185 20.1259 20.0107 20.2252 19.8067C20.3246 19.6027 20.3685 19.3762 20.3527 19.1499C20.3341 14.2365 20.3409 9.32323 20.3425 4.40992C20.3425 1.68896 22.0215 0.00488281 24.7239 0.00488281H55.6015C58.3123 0.00488281 60.0065 1.68726 60.0065 4.40992C60.0065 13.6842 60.0065 22.9585 60.0065 32.2328C60.0065 34.9351 58.3123 36.6124 55.5913 36.6141L40.1449 36.6023ZM17.9079 24.4037C19.2006 25.4389 20.4069 26.4368 21.6471 27.3856C22.1656 27.782 22.4112 28.2327 22.3858 28.8918C22.3451 29.9913 22.3739 31.0943 22.3756 32.1939C22.3756 33.7898 23.1567 34.5658 24.7476 34.5658H55.5727C57.2127 34.5658 57.9717 33.8 57.9717 32.1498V4.45566C57.9717 2.80377 57.211 2.03459 55.5778 2.03459H24.7577C23.1482 2.03459 22.3756 2.80208 22.3756 4.40653C22.3756 9.59432 22.3785 14.7821 22.3841 19.9699C22.3992 20.2427 22.345 20.5149 22.2265 20.7611C22.108 21.0073 21.9291 21.2194 21.7064 21.3778C20.451 22.3401 19.2243 23.3465 17.9079 24.402V24.4037Z" fill="#473C3C"></path><path d="M12.2188 14.196V12.251H14.1959V14.196H12.2188Z" fill="#473C3C"></path><path d="M18.2745 14.2063H16.3193V12.2393H18.2745V14.2063Z" fill="#473C3C"></path><path d="M46.7796 23.4112H48.8127C48.8127 23.6501 48.8127 23.8738 48.8127 24.0991C48.8127 25.0868 49.1515 25.4138 50.1681 25.4189C50.7407 25.4189 51.3117 25.4088 51.8843 25.4189C52.6932 25.4162 53.4699 25.7349 54.0438 26.305C54.6176 26.875 54.9415 27.6496 54.9442 28.4584C54.9469 29.2672 54.6281 30.044 54.0581 30.6178C53.4881 31.1916 52.7135 31.5155 51.9047 31.5182C48.4936 31.5397 45.0831 31.5397 41.6731 31.5182C41.2738 31.5196 40.8781 31.4414 40.5093 31.2883C40.1405 31.1351 39.8058 30.91 39.525 30.6261C39.2441 30.3422 39.0225 30.0052 38.8733 29.6348C38.724 29.2643 38.6501 28.8679 38.6557 28.4686C38.6371 25.5663 38.6557 22.6658 38.6557 19.7635C38.6647 19.5706 38.6561 19.3772 38.6303 19.1858C38.5269 18.6402 38.1898 18.3082 37.6273 18.3099C37.0648 18.3116 36.7293 18.6402 36.6294 19.1892C36.6073 19.3787 36.6022 19.5697 36.6141 19.7601C36.6141 22.6827 36.6277 25.6053 36.604 28.5279C36.5937 29.2392 36.3338 29.9243 35.8696 30.4635C35.4055 31.0027 34.7667 31.3617 34.0648 31.4777C33.3629 31.5938 32.6426 31.4595 32.0296 31.0984C31.4166 30.7373 30.9501 30.1722 30.7114 29.5021C30.5745 29.0584 30.5099 28.5956 30.5199 28.1314C30.5075 21.8006 30.5075 15.468 30.5199 9.13382C30.5293 8.90096 30.5225 8.66772 30.4996 8.4358C30.441 8.07731 30.2563 7.75153 29.9789 7.51708C29.7014 7.28264 29.3494 7.15495 28.9862 7.15699C28.6229 7.15904 28.2724 7.29068 27.9976 7.52823C27.7228 7.76578 27.5418 8.09362 27.4872 8.45274C27.4671 8.68485 27.4615 8.91797 27.4703 9.15077V27.4147H25.4829C25.4549 27.2859 25.4368 27.155 25.4287 27.0234C25.4287 20.9026 25.4287 14.7819 25.4287 8.66113C25.4287 6.89234 26.6147 5.49967 28.3343 5.14727C29.121 4.99293 29.9368 5.11437 30.6444 5.49116C31.352 5.86796 31.9082 6.47707 32.2192 7.21594C32.4292 7.76767 32.5344 8.35375 32.5293 8.94407C32.5496 15.2551 32.5429 21.5662 32.5429 27.8773C32.5429 28.0687 32.5344 28.2602 32.5429 28.4499C32.5835 29.0565 32.9867 29.4665 33.5374 29.48C34.088 29.4936 34.5319 29.0632 34.5692 28.4211C34.5793 28.2314 34.5692 28.0399 34.5692 27.8502C34.5692 24.9903 34.5556 22.1321 34.5692 19.2722C34.5779 18.5534 34.841 17.861 35.3118 17.3179C35.7827 16.7748 36.4308 16.4161 37.141 16.3056C37.816 16.1933 38.509 16.3149 39.1054 16.6501C39.7019 16.9853 40.166 17.514 40.4211 18.1489C40.5857 18.6047 40.6694 19.0858 40.6685 19.5704C40.6905 22.4082 40.6769 25.2461 40.6786 28.084C40.6786 29.17 40.9937 29.4885 42.0713 29.4885C45.248 29.4885 48.4264 29.4885 51.6031 29.4885C52.1622 29.4885 52.6197 29.3479 52.8196 28.782C53.05 28.1467 52.5925 27.4961 51.8691 27.4588C51.2761 27.43 50.6831 27.4588 50.0901 27.4503C48.0283 27.4503 46.783 26.1864 46.7796 24.1127V23.4112Z" fill="#473C3C"></path><path d="M40.6787 12.3445C40.6974 9.3101 42.4526 6.69757 45.0838 5.62003C46.3963 5.08339 47.8389 4.95002 49.2275 5.23695C50.6162 5.52387 51.8878 6.21807 52.8801 7.23094C53.8725 8.24382 54.5405 9.52941 54.7989 10.9236C55.0573 12.3178 54.8944 13.7575 54.331 15.0587C53.1331 17.9101 50.895 19.7755 48.2571 21.219C48.1263 21.2842 47.9832 21.3209 47.8372 21.3268C47.6911 21.3326 47.5455 21.3074 47.41 21.2528C44.4467 19.645 41.9968 17.5475 40.943 14.1912C40.8345 13.8027 40.7575 13.4061 40.7126 13.0053C40.6896 12.7858 40.6783 12.5652 40.6787 12.3445ZM42.6864 12.3445C42.7443 12.7788 42.8252 13.2097 42.9287 13.6355C43.503 15.65 44.8618 17.0918 46.4985 18.271C48.0775 19.4095 47.5252 19.4078 49.0923 18.271C50.7273 17.085 52.1013 15.6534 52.6621 13.6355C53.2365 11.5668 52.7163 9.75569 51.1034 8.35624C49.4905 6.9568 47.6438 6.70604 45.714 7.57519C43.7538 8.46806 42.8152 10.0844 42.6864 12.3513V12.3445Z" fill="#473C3C"></path><path d="M27.4244 31.4892H25.4727V29.5205H27.4244V31.4892Z" fill="#473C3C"></path><path d="M50.8444 12.1988C50.8444 12.8034 50.6646 13.3945 50.3279 13.8967C49.9912 14.399 49.5128 14.7898 48.9534 15.0195C48.3941 15.2493 47.7791 15.3075 47.1866 15.187C46.5941 15.0664 46.0508 14.7724 45.6257 14.3423C45.2007 13.9122 44.9131 13.3655 44.7994 12.7716C44.6858 12.1777 44.7513 11.5634 44.9876 11.0069C45.2239 10.4503 45.6203 9.97648 46.1265 9.6457C46.6326 9.31492 47.2257 9.14208 47.8303 9.14913C48.6321 9.16112 49.3972 9.48738 49.9609 10.0577C50.5246 10.6281 50.8418 11.3969 50.8444 12.1988ZM47.7948 13.2153C47.997 13.2153 48.1945 13.1549 48.3622 13.0419C48.5299 12.929 48.6602 12.7686 48.7362 12.5813C48.8123 12.3939 48.8308 12.1882 48.7893 11.9903C48.7479 11.7924 48.6483 11.6114 48.5034 11.4703C48.3585 11.3293 48.1749 11.2347 47.9759 11.1986C47.777 11.1625 47.5718 11.1865 47.3866 11.2676C47.2014 11.3487 47.0446 11.4832 46.9362 11.6539C46.8278 11.8246 46.7728 12.0238 46.7782 12.2259C46.7879 12.4912 46.9001 12.7425 47.0913 12.9267C47.2825 13.1109 47.5377 13.2138 47.8032 13.2136L47.7948 13.2153Z" fill="#473C3C"></path></g><defs><clipPath id="clip0_1756_280"><rect width="60" height="63.0361" fill="white"></rect></clipPath></defs></svg> 