<?xml version="1.0" encoding="UTF-8"?> <svg xmlns="http://www.w3.org/2000/svg" width="60" height="48" viewBox="0 0 60 48" fill="none"><g clip-path="url(#clip0_1756_407)"><path d="M35.2591 25.7165H5.69219C4.27324 25.7064 2.85428 25.6742 1.43532 25.6964C0.993047 25.6964 0.852323 25.5415 0.879128 25.0186C0.914308 24.3429 0.914308 23.6651 0.879128 22.9894C0.852323 22.4645 0.993047 22.3036 1.43532 22.3096C2.85428 22.3317 4.27324 22.3096 5.69219 22.2915H55.0475C56.2202 22.3036 57.3929 22.3358 58.5656 22.3136C59.0011 22.3136 59.1586 22.4564 59.1335 22.9894C59.1033 23.6915 59.1033 24.395 59.1335 25.0971C59.1519 25.5636 59.0112 25.7004 58.6309 25.7004C57.4381 25.6863 56.247 25.7125 55.0542 25.7225H35.2591V25.7165Z" fill="#F7725D"></path><path d="M8.54036 22.2914H5.69239C5.69239 17.0162 5.69239 11.743 5.68066 6.46973C5.68066 5.87846 5.80296 5.66528 6.30387 5.71958C6.86766 5.76986 7.43378 5.76986 7.99758 5.71958C8.4499 5.68137 8.54539 5.87846 8.54371 6.39331C8.52863 11.6987 8.54036 16.992 8.54036 22.2914Z" fill="#726E6E"></path><path d="M20.0578 22.2915H17.2517C17.2517 17.0143 17.2601 11.737 17.2383 6.45981C17.2383 5.85646 17.384 5.67345 17.8715 5.71971C18.3934 5.76797 18.9177 5.76797 19.4396 5.71971C19.9254 5.67546 20.0745 5.85244 20.0728 6.45981C20.0494 11.737 20.0578 17.0143 20.0578 22.2915Z" fill="#726E6E"></path><path d="M41.1099 25.7163H43.921C43.921 30.9694 43.9076 36.2205 43.9344 41.4716C43.9344 42.1534 43.7819 42.3545 43.2358 42.2881C42.7561 42.2318 42.273 42.2318 41.7934 42.2881C41.2489 42.3525 41.0914 42.1554 41.0948 41.4736C41.1216 36.2205 41.1099 30.9694 41.1099 25.7163Z" fill="#726E6E"></path><path d="M43.9193 22.2917H41.1098C41.1098 17.0486 41.1232 11.8076 41.0947 6.56655C41.0947 5.8526 41.2623 5.65551 41.8268 5.71786C42.3055 5.77115 42.7872 5.77115 43.2659 5.71786C43.7769 5.66356 43.936 5.84657 43.936 6.49214C43.9092 11.7573 43.9193 17.0245 43.9193 22.2917Z" fill="#726E6E"></path><path d="M5.69227 25.7163H8.54023C8.54023 30.9895 8.53185 36.2647 8.55028 41.538C8.55028 42.1131 8.44977 42.3424 7.93881 42.2881C7.3964 42.2338 6.85117 42.2338 6.30877 42.2881C5.80618 42.3364 5.68389 42.1272 5.68556 41.538C5.69226 36.2647 5.69227 30.9915 5.69227 25.7163Z" fill="#726E6E"></path><path d="M17.2517 25.7163H20.0595C20.0595 30.9936 20.0511 36.2708 20.0729 41.548C20.0729 42.1514 19.9271 42.3344 19.4396 42.2881C18.9177 42.2399 18.3935 42.2399 17.8715 42.2881C17.384 42.3344 17.2366 42.1534 17.2383 41.548C17.2517 36.2708 17.2517 30.9936 17.2517 25.7163Z" fill="#726E6E"></path><path d="M29.7191 22.2916H27.1895C27.1895 17.0445 27.2012 11.7994 27.1895 6.55235C27.1895 5.92085 27.2799 5.62723 27.8596 5.71773C28.2759 5.77606 28.6964 5.77606 29.1127 5.71773C29.6236 5.65136 29.7359 5.89873 29.7325 6.47392C29.7158 11.1418 29.7241 15.8117 29.7241 20.4795C29.7208 21.0869 29.7191 21.6882 29.7191 22.2916Z" fill="#726E6E"></path><path d="M27.19 25.7144H29.7197C29.7197 30.9856 29.708 36.2588 29.7197 41.53C29.7197 42.1012 29.6192 42.3486 29.1066 42.2862C28.6694 42.2309 28.2286 42.2309 27.7915 42.2862C27.2738 42.3506 27.18 42.0851 27.1817 41.528C27.2001 36.2588 27.1917 30.9856 27.19 25.7144Z" fill="#726E6E"></path><path d="M52.6442 25.7163H55.0482C55.0482 30.9895 55.0398 36.2627 55.0482 41.538C55.0482 42.1152 54.9426 42.3424 54.435 42.2861C53.9969 42.2409 53.5564 42.2409 53.1183 42.2861C52.7279 42.3203 52.6241 42.1474 52.6291 41.6828C52.6475 39.8004 52.6291 37.9159 52.6291 36.0335L52.6442 25.7163Z" fill="#726E6E"></path><path d="M55.0479 22.2893H52.6438C52.6438 17.0161 52.6438 11.7408 52.6338 6.46761C52.6338 5.88237 52.7477 5.66316 53.252 5.71948C53.6687 5.76875 54.0884 5.76875 54.5051 5.71948C54.9574 5.6692 55.0562 5.87634 55.0546 6.39119C55.0412 11.6986 55.0479 16.9919 55.0479 22.2893Z" fill="#726E6E"></path><path d="M45.7683 25.7163H47.8339C47.8339 30.9594 47.8205 36.2024 47.849 41.4435C47.849 42.1655 47.6664 42.3062 47.1169 42.2902C45.7666 42.2459 45.7666 42.2761 45.7666 40.6812C45.7666 35.6963 45.7672 30.708 45.7683 25.7163Z" fill="#726E6E"></path><path d="M13.5781 25.7163H15.6404C15.6404 30.9835 15.632 36.2527 15.6555 41.5199C15.6555 42.1715 15.4879 42.3022 14.9854 42.2901C13.5831 42.2539 13.5815 42.2801 13.5815 40.6169L13.5781 25.7163Z" fill="#726E6E"></path><path d="M15.6404 22.2916H13.5781C13.5781 17.0244 13.5882 11.7572 13.5664 6.48999C13.5664 5.84642 13.7222 5.70364 14.2365 5.71772C15.6488 5.75593 15.6504 5.71772 15.6488 7.393C15.6443 12.3592 15.6415 17.3254 15.6404 22.2916Z" fill="#726E6E"></path><path d="M47.8339 22.2914H45.7683C45.7683 17.0725 45.7683 11.8556 45.7549 6.63867C45.7549 5.95689 45.8504 5.67733 46.4937 5.70951C47.8339 5.77789 47.8339 5.72962 47.8339 7.31843V22.2914Z" fill="#726E6E"></path><path d="M25.5027 22.2917H23.8509C23.8509 17.0144 23.8609 11.7372 23.8408 6.45993C23.8408 5.86866 23.9648 5.69972 24.459 5.71983C25.501 5.76207 25.5027 5.71983 25.5027 6.98887V22.2917Z" fill="#726E6E"></path><path d="M36.9216 22.2915H35.2598C35.2598 17.0243 35.2715 11.7592 35.248 6.49196C35.248 5.85644 35.3888 5.68751 35.9048 5.71768C36.92 5.76594 36.92 5.71767 36.92 6.94447C36.92 12.0581 36.9205 17.1738 36.9216 22.2915Z" fill="#726E6E"></path><path d="M35.2598 25.7163H36.9216C36.9216 30.9935 36.9116 36.2708 36.9334 41.548C36.9334 42.1514 36.801 42.3062 36.3118 42.2881C35.2631 42.2479 35.2614 42.2881 35.2614 41.0211C35.2614 35.9182 35.2609 30.8166 35.2598 25.7163Z" fill="#726E6E"></path><path d="M23.8506 25.7163H25.5024C25.5024 30.9935 25.5024 36.2708 25.5141 41.548C25.5141 42.1393 25.3902 42.3082 24.896 42.2881C23.8523 42.2459 23.8523 42.2881 23.8523 41.0191C23.8523 35.9188 23.8517 30.8179 23.8506 25.7163Z" fill="#726E6E"></path><path d="M10.5605 25.7163H12.0582C12.0582 30.9875 12.0398 36.2587 12.0783 41.5279C12.0783 42.3082 11.8052 42.3042 11.3479 42.2821C10.8905 42.26 10.5354 42.4108 10.5421 41.5279C10.584 36.2587 10.5622 30.9875 10.5605 25.7163Z" fill="#726E6E"></path><path d="M50.8677 22.2895H49.3717C49.3717 17.0183 49.3951 11.7471 49.3516 6.47788C49.3516 5.59499 49.7235 5.74182 50.1574 5.7217C50.5913 5.70159 50.8945 5.69756 50.8878 6.47788C50.8493 11.7491 50.8677 17.0203 50.8677 22.2895Z" fill="#726E6E"></path><path d="M49.3734 25.7163H50.8678C50.8678 30.9875 50.8494 36.2567 50.8879 41.5279C50.8879 42.3062 50.6148 42.3022 50.1575 42.2821C49.7001 42.262 49.345 42.4088 49.3517 41.5259C49.3952 36.2567 49.3734 30.9875 49.3734 25.7163Z" fill="#726E6E"></path><path d="M12.0591 22.2896H10.5631C10.5631 17.0184 10.5865 11.7471 10.543 6.47795C10.543 5.59505 10.9149 5.74388 11.3488 5.72377C11.7827 5.70366 12.0859 5.69762 12.0792 6.47795C12.039 11.7492 12.0591 17.0204 12.0591 22.2896Z" fill="#726E6E"></path><path d="M31.6594 25.7163H33.0415C33.0415 30.9895 33.0297 36.2627 33.0565 41.5339C33.0565 42.2057 32.8756 42.3243 32.3864 42.2881C31.9475 42.2559 31.6376 42.3324 31.6426 41.5339C31.6761 36.2627 31.6594 30.9895 31.6594 25.7163Z" fill="#726E6E"></path><path d="M33.0378 22.2896H31.6591C31.6591 17.0163 31.6792 11.7431 31.6406 6.46991C31.6406 5.66545 31.9455 5.7479 32.3845 5.71573C32.8753 5.67953 33.0546 5.80019 33.0546 6.46991C33.0261 11.7451 33.0378 17.0184 33.0378 22.2896Z" fill="#726E6E"></path><path d="M21.4942 25.7163H22.625C22.625 30.9895 22.625 36.2614 22.625 41.5319C22.625 41.9965 22.6451 42.3183 22.0923 42.3042C21.5813 42.2901 21.4791 42.1031 21.4825 41.5299C21.5026 36.2587 21.4959 30.9875 21.4942 25.7163Z" fill="#726E6E"></path><path d="M39.6693 22.2916H38.5401C38.5401 17.021 38.5401 11.7498 38.5401 6.47793C38.5401 6.01335 38.52 5.68956 39.0729 5.70565C39.5754 5.71973 39.686 5.90676 39.6843 6.47793C39.6626 11.7471 39.6693 17.0183 39.6693 22.2916Z" fill="#726E6E"></path><path d="M38.5397 25.7163H39.6688C39.6688 30.9627 39.6688 36.2091 39.6688 41.4555C39.6688 42.26 39.4242 42.4611 38.7541 42.2761C38.3839 42.1715 38.5497 41.8316 38.5497 41.6064C38.538 38.2176 38.5497 34.8288 38.5497 31.44C38.5441 29.5335 38.5408 27.6256 38.5397 25.7163Z" fill="#726E6E"></path><path d="M22.625 22.2895H21.4941C21.4941 17.0431 21.4941 11.7967 21.4941 6.5503C21.4941 5.74584 21.7387 5.54472 22.4088 5.72774C22.7774 5.83433 22.6132 6.1722 22.6132 6.39745C22.625 9.78623 22.6216 13.175 22.6216 16.5638C22.6227 18.4744 22.6238 20.383 22.625 22.2895Z" fill="#726E6E"></path><path d="M56.0599 47.9859C55.0128 47.9859 53.9658 47.9859 52.9204 47.9859C52.5937 47.9859 52.2386 47.9859 52.2503 47.4529C52.262 46.92 52.6122 46.928 52.9388 46.928C54.7381 46.928 56.539 46.8979 58.3382 46.9461C58.9413 46.9622 59.1591 46.8275 59.1374 46.027C59.0821 43.9435 59.1189 41.8559 59.1189 39.7704C59.1189 39.5954 59.1189 39.4184 59.1189 39.2434C59.1189 38.9176 59.258 38.6984 59.5243 38.6843C59.8292 38.6683 59.9666 38.9136 59.9884 39.2575C59.9884 39.3842 59.9884 39.5089 59.9884 39.6356C59.9884 42.0973 59.9767 44.5609 59.9884 47.0226C59.9884 47.7244 59.7991 48.0281 59.1859 47.9959C58.154 47.9537 57.1052 47.9859 56.0599 47.9859Z" fill="#726E6E"></path><path d="M56.1188 0.0220326C57.186 0.0220326 58.2531 0.0381218 59.3203 0.0220326C59.8061 0.0220326 60.0038 0.257337 60.0021 0.82649C60.0021 3.38869 60.0021 5.94888 60.0021 8.51108C60.0021 8.91331 59.9669 9.33766 59.5414 9.31554C59.1159 9.29341 59.1226 8.85297 59.1226 8.46683C59.1226 6.25457 59.0992 4.04231 59.1377 1.83005C59.1477 1.17643 58.9702 1.05174 58.4676 1.06179C56.6248 1.1 54.782 1.07587 52.9392 1.07788C52.708 1.07788 52.4701 1.10202 52.311 0.84057C52.2674 0.768844 52.2404 0.684535 52.2327 0.596223C52.2251 0.50791 52.237 0.418744 52.2674 0.337784C52.3612 0.062257 52.5622 0.0200195 52.7851 0.0200195C53.8958 0.0340975 55.0048 0.0220326 56.1188 0.0220326Z" fill="#726E6E"></path><path d="M3.95566 0.0222931C4.89716 0.0222931 5.83867 0.00218165 6.78017 0.0222931C7.15543 0.03436 7.75853 -0.227084 7.74848 0.555252C7.74848 1.25312 7.17554 1.05602 6.80697 1.06004C5.02783 1.07211 3.24869 1.08417 1.47122 1.06004C1.0189 1.06004 0.8631 1.16061 0.871477 1.74987C0.906658 3.88571 0.884877 6.02154 0.884877 8.15537C0.884877 8.3062 0.884877 8.45704 0.884877 8.60787C0.90163 8.97994 0.801115 9.29971 0.467735 9.30976C0.090798 9.30976 0.00200846 8.96988 0.00703428 8.5777C0.00703428 8.32631 0.00703428 8.07492 0.00703428 7.82352C0.00703428 5.563 0.00703428 3.3018 0.00703428 1.03993C0.00703428 0.0946939 0.0706952 0.0222911 0.876502 0.02028C1.904 0.0189392 2.93039 0.0196116 3.95566 0.0222931Z" fill="#726E6E"></path><path d="M3.86699 47.9839C2.84339 47.9839 1.81812 47.9537 0.796204 47.9959C0.183053 48.0221 -0.00457584 47.7204 0.00212526 47.0185C0.0222286 44.5589 0.00212322 42.1013 0.0104996 39.6436C0.0104996 39.2173 -0.0447826 38.6883 0.467852 38.6964C0.940279 38.6964 0.88667 39.2072 0.88667 39.6094C0.88667 41.8217 0.900071 44.034 0.874942 46.2322C0.874942 46.7772 0.963735 46.9582 1.44957 46.9481C3.24546 46.9079 5.04303 46.932 6.8406 46.932C6.98635 46.932 7.13377 46.932 7.27952 46.932C7.57102 46.9461 7.7821 47.1171 7.76703 47.4771C7.75195 47.8371 7.54589 47.9839 7.25272 47.9839C6.12358 47.9819 4.99612 47.9839 3.86699 47.9839Z" fill="#726E6E"></path></g><defs><clipPath id="clip0_1756_407"><rect width="60" height="48" fill="white"></rect></clipPath></defs></svg> 