<?xml version="1.0" encoding="UTF-8"?> <svg xmlns="http://www.w3.org/2000/svg" width="60" height="60" viewBox="0 0 60 60" fill="none"><g clip-path="url(#clip0_1756_289)"><path d="M52.0101 37.0816C51.5351 38.1926 51.0684 39.2323 50.6566 40.2935C50.6332 40.4104 50.6371 40.5312 50.668 40.6464C50.6988 40.7616 50.7557 40.8681 50.8343 40.9578C52.2708 42.4276 53.7323 43.8741 55.1838 45.3289C55.966 46.1145 55.966 46.533 55.1838 47.3218C52.5399 49.9514 49.897 52.587 47.2553 55.2287C46.5263 55.9562 46.0928 55.9562 45.3604 55.2287C43.8906 53.7623 42.4175 52.2975 40.961 50.8194C40.702 50.557 40.5043 50.5155 40.1605 50.6749C39.1641 51.1383 38.1477 51.5501 37.0765 52.0035V58.4124C37.0765 59.761 36.8423 59.9935 35.4789 59.9935H24.5178C23.4234 59.9935 23.1261 59.6929 23.1261 58.5818C23.1261 56.5258 23.1162 54.4698 23.1344 52.4154C23.1344 52.0434 23.0182 51.884 22.6677 51.7511C21.7925 51.4339 20.9223 51.0868 20.0836 50.6865C19.685 50.4956 19.4724 50.5703 19.1851 50.8626C17.7602 52.3158 16.3137 53.749 14.8671 55.1806C14.1015 55.9445 13.6614 55.9628 12.9307 55.1988C10.6953 52.8771 8.25898 50.6998 6.27769 48.1522C-5.10517 33.5674 -0.473306 12.1918 15.8653 3.49102C21.5 0.502086 27.9421 -0.608818 34.2525 0.320273C40.5628 1.24936 46.4114 4.16987 50.9455 8.656C52.3605 10.061 53.7705 11.4704 55.1755 12.8843C55.981 13.6898 55.9777 14.0867 55.1539 14.9121C53.7323 16.3387 52.3157 17.7703 50.8775 19.1802C50.5835 19.4659 50.5071 19.6785 50.6997 20.077C51.1033 20.9074 51.4471 21.786 51.7693 22.6595C51.8972 23.005 52.0516 23.1295 52.4253 23.1262C54.5012 23.1079 56.5772 23.1162 58.6548 23.1179C59.6778 23.1179 60 23.4368 60 24.4465C60 28.2043 60 31.9626 60 35.7214C60 36.7428 59.6795 37.0666 58.6714 37.0666C56.4482 37.0766 54.2278 37.0816 52.0101 37.0816ZM46.2821 12.5189C37.0118 3.88296 21.8938 3.85639 12.6168 13.7828C3.63044 23.4002 4.47909 37.7841 12.6168 46.3702C12.7279 46.1663 12.858 45.9734 13.0054 45.7939C15.2895 43.4977 17.5786 41.2053 19.8727 38.9167C20.7247 38.0648 21.0751 38.0714 21.9619 38.8553C25.129 41.657 28.8109 42.6269 32.8997 41.6288C41.7449 39.4698 44.9668 28.5885 38.7871 21.8989C38.0763 21.1283 38.0863 20.7015 38.8419 19.9442L42.1917 16.5978L46.2821 12.5189ZM40.7418 21.0054C42.9218 23.5853 44.0979 26.8651 44.054 30.2424C44.01 33.6197 42.7491 36.8678 40.5027 39.3901C38.4118 41.6935 35.8525 43.1949 32.8001 43.7761C28.3774 44.6165 24.4315 43.4921 21.0635 40.7569L11.3131 50.5138C12.1734 51.3774 13.0885 52.2925 14.0202 53.2259C15.4717 51.7744 16.9813 50.2614 18.4943 48.7518C19.0788 48.1705 19.3728 48.1539 20.0985 48.4711C21.446 49.0568 22.8034 49.6176 24.1707 50.1535C24.9164 50.4457 25.1157 50.6666 25.1157 51.4821C25.1157 53.434 25.1157 55.3854 25.1157 57.3362V57.974H35.0803V57.2681C35.0803 55.3168 35.0919 53.3654 35.0803 51.414C35.0803 50.7497 35.3709 50.4009 35.9754 50.1684C37.3655 49.632 38.7406 49.0623 40.1074 48.4711C40.8099 48.1655 41.1288 48.1755 41.6685 48.7119C42.9623 50.0007 44.2577 51.2894 45.5381 52.5914C45.7425 52.8221 45.9291 53.0681 46.0961 53.3272L53.2374 46.1859C51.7709 44.7194 50.248 43.1965 48.7234 41.667C48.182 41.1239 48.1671 40.8067 48.471 40.1092C49.0567 38.7628 49.6186 37.4054 50.1567 36.037C50.4473 35.288 50.6682 35.082 51.472 35.0804C53.424 35.0804 55.3754 35.0804 57.3262 35.0804H57.9805V25.1158H57.283C55.3316 25.1158 53.3802 25.1058 51.4305 25.1158C50.7662 25.1158 50.4108 24.8351 50.1749 24.229C49.628 22.8217 49.0523 21.4261 48.4478 20.0422C48.1854 19.4476 48.2368 18.9876 48.7052 18.5292C49.8478 17.4115 50.9671 16.2706 52.1014 15.1429C52.51 14.7377 52.9318 14.3424 53.264 14.0169L50.4905 11.2401L40.7418 21.0054ZM49.0589 9.66573C38.1743 -0.577847 20.2098 -0.594455 9.38497 11.4079C-1.27546 23.2275 0.795514 39.9962 9.66066 48.9976L11.0175 47.6789C1.58604 37.4254 2.32507 22.0899 10.9212 12.7232C15.1295 8.13784 20.3178 5.31454 26.4875 4.47918C34.5422 3.38972 41.6104 5.69817 47.6722 11.0159L49.0589 9.66573Z" fill="#077094"></path><path d="M29.1028 20.5088C29.1028 18.827 29.1028 17.1458 29.1028 15.4651C29.1028 14.6181 29.4499 14.1581 30.0877 14.1514C30.7254 14.1448 31.0941 14.6098 31.0941 15.4435C31.0941 18.8265 31.0941 22.2095 31.0858 25.5924C31.0858 26.0358 31.1622 26.2733 31.6305 26.4577C32.4381 26.7816 33.115 27.3647 33.5549 28.1154C33.9947 28.8662 34.1725 29.7418 34.0602 30.6046C33.9439 31.4863 33.5385 32.3045 32.9074 32.9311C32.2763 33.5578 31.4551 33.9573 30.5726 34.0673C29.7193 34.1703 28.8558 33.9901 28.115 33.5544C27.3741 33.1187 26.7969 32.4517 26.4722 31.6559C26.2795 31.1742 26.0288 31.0763 25.5621 31.0812C23.5493 31.1062 21.5364 31.0929 19.5236 31.0912C18.6168 31.0912 18.1534 30.7591 18.1418 30.1114C18.1302 29.4637 18.6052 29.1 19.5518 29.0983C21.6062 29.0983 23.6605 29.0883 25.7149 29.1066C26.1035 29.1066 26.2829 29.0036 26.429 28.6217C26.6148 28.1123 26.9107 27.6502 27.2957 27.2684C27.6807 26.8865 28.1452 26.5944 28.6561 26.4128C29.0248 26.275 29.1095 26.0956 29.1062 25.7386C29.0945 23.9948 29.1028 22.2526 29.1028 20.5088ZM32.0922 30.1047C32.0945 29.7101 31.9796 29.3236 31.762 28.9944C31.5444 28.6651 31.234 28.4079 30.87 28.2552C30.5061 28.1026 30.105 28.0615 29.7177 28.1371C29.3303 28.2126 28.9741 28.4015 28.6943 28.6798C28.4144 28.958 28.2234 29.3131 28.1456 29.7C28.0677 30.0869 28.1065 30.4882 28.257 30.853C28.4075 31.2179 28.6629 31.5298 28.9909 31.7493C29.3189 31.9688 29.7046 32.086 30.0993 32.086C30.6253 32.0856 31.1297 31.8772 31.5027 31.5064C31.8758 31.1356 32.087 30.6323 32.0906 30.1064L32.0922 30.1047Z" fill="#077094"></path><path d="M38.1229 30.3371C38.108 28.0951 37.4055 26.3031 36.0337 24.7702C35.9506 24.6772 35.8593 24.5925 35.7763 24.4995C35.3511 24.0179 35.3312 23.4483 35.7215 23.0513C36.14 22.6262 36.7312 22.6411 37.2062 23.1261C38.6601 24.574 39.6127 26.449 39.9248 28.477C40.9047 34.7647 36.0686 40.2469 29.7045 40.0492C27.2018 39.9712 25.0311 39.0196 23.2176 37.2824C22.6745 36.7642 22.6147 36.2012 23.0266 35.7528C23.4385 35.3044 24.043 35.3459 24.6093 35.8641C26.951 38.0065 29.663 38.6874 32.6756 37.6909C35.6882 36.6945 37.4154 34.5355 38.0216 31.4564C38.078 31.0857 38.1118 30.7119 38.1229 30.3371Z" fill="#077094"></path><path d="M31.0958 9.1807C31.0958 9.49126 31.1074 9.80349 31.0958 10.114C31.0642 10.7435 30.6507 11.162 30.086 11.152C29.9558 11.1505 29.8271 11.1232 29.7075 11.0715C29.5879 11.0199 29.4798 10.945 29.3894 10.8512C29.299 10.7574 29.2282 10.6466 29.181 10.5252C29.1338 10.4037 29.1112 10.2742 29.1145 10.1439C29.0912 9.49956 29.0929 8.85519 29.1145 8.21247C29.1361 7.56976 29.5546 7.16453 30.1209 7.1745C30.6872 7.18446 31.0725 7.60464 31.0991 8.24569C31.1057 8.55459 31.0958 8.86682 31.0958 9.1807Z" fill="#077094"></path><path d="M9.14878 31.0877C8.81663 31.0877 8.48448 31.1077 8.15233 31.0877C7.88978 31.0812 7.64043 30.9713 7.4585 30.7819C7.27657 30.5925 7.17676 30.3389 7.18078 30.0763C7.18247 29.8234 7.28291 29.5811 7.46068 29.4012C7.63845 29.2212 7.87949 29.1179 8.1324 29.1131C8.81497 29.0832 9.50253 29.0849 10.1868 29.1131C10.3173 29.1135 10.4465 29.1401 10.5666 29.1913C10.6867 29.2426 10.7953 29.3175 10.8859 29.4115C10.9766 29.5055 11.0474 29.6168 11.0942 29.7387C11.1409 29.8606 11.1628 29.9907 11.1583 30.1212C11.1534 30.3734 11.052 30.6142 10.875 30.794C10.698 30.9737 10.4588 31.0789 10.2067 31.0877C9.86457 31.1027 9.50087 31.0877 9.14878 31.0877Z" fill="#077094"></path><path d="M12.8174 21.1466C12.6585 21.1046 12.5035 21.049 12.3541 20.9805C11.7745 20.66 11.1915 20.3412 10.6319 19.9841C10.5182 19.9208 10.4183 19.8357 10.3378 19.7335C10.2574 19.6314 10.1979 19.5143 10.163 19.389C10.1281 19.2637 10.1184 19.1328 10.1345 19.0037C10.1505 18.8747 10.192 18.7501 10.2565 18.6372C10.3179 18.5226 10.4019 18.4217 10.5033 18.3404C10.6048 18.2591 10.7217 18.1992 10.8469 18.1643C10.9721 18.1294 11.1031 18.1202 11.232 18.1372C11.3609 18.1543 11.4849 18.1973 11.5968 18.2636C12.2013 18.5791 12.7909 18.9279 13.3705 19.2866C13.7923 19.5506 13.9567 19.9974 13.7491 20.4209C13.583 20.753 13.2243 20.9689 12.9503 21.238L12.8174 21.1466Z" fill="#077094"></path><path d="M21.3386 12.8458C20.9832 13.2228 20.774 13.5765 20.4651 13.7343C20.2775 13.8341 20.0588 13.8583 19.854 13.8017C19.6491 13.7452 19.4738 13.6123 19.364 13.4304C18.9538 12.7877 18.5685 12.1234 18.2214 11.4375C18.1688 11.3459 18.1353 11.2447 18.1228 11.1398C18.1102 11.035 18.1189 10.9287 18.1484 10.8273C18.1778 10.7259 18.2274 10.6315 18.2942 10.5498C18.3609 10.468 18.4435 10.4005 18.5369 10.3513C18.8409 10.1952 19.4653 10.1105 19.5998 10.2766C20.2259 11.0522 20.7308 11.9207 21.3386 12.8458Z" fill="#077094"></path><path d="M42.1406 10.9544C42.0825 11.1724 42.0092 11.386 41.9214 11.5938C41.6009 12.1718 41.2837 12.7564 40.9249 13.3127C40.7944 13.5397 40.5797 13.7062 40.3273 13.7761C40.0749 13.846 39.8052 13.8138 39.5764 13.6864C39.4628 13.6235 39.3629 13.5386 39.2826 13.4366C39.2023 13.3346 39.1433 13.2175 39.1089 13.0923C39.0746 12.9671 39.0656 12.8363 39.0826 12.7076C39.0995 12.5789 39.1421 12.4548 39.2077 12.3428C39.5249 11.74 39.872 11.1504 40.2307 10.5708C40.4948 10.149 40.9449 9.98953 41.365 10.1955C41.6939 10.3549 41.9181 10.7236 42.1406 10.9544Z" fill="#077094"></path><path d="M11.1004 42.2632C10.7251 41.9161 10.3016 41.7052 10.2285 41.4079C10.1472 41.0758 10.2667 40.5178 10.5092 40.3251C11.137 39.86 11.8116 39.4614 12.522 39.136C12.6139 39.085 12.7151 39.0531 12.8196 39.0423C12.9241 39.0314 13.0298 39.0418 13.1302 39.0728C13.2305 39.1039 13.3236 39.1549 13.4038 39.2228C13.4839 39.2908 13.5495 39.3742 13.5966 39.4682C13.746 39.7737 13.8224 40.3932 13.6547 40.5294C12.8907 41.1572 12.0238 41.6587 11.1004 42.2632Z" fill="#077094"></path><path d="M49.0253 47.7869L47.7515 49.0591L46.4229 47.6341L47.7166 46.4268L49.0253 47.7869Z" fill="#077094"></path><path d="M54.0596 29.1099H55.9645V31.048H54.0596V29.1099Z" fill="#077094"></path><path d="M29.1562 54.0312H31.0495V55.971H29.1562V54.0312Z" fill="#077094"></path></g><defs><clipPath id="clip0_1756_289"><rect width="60" height="60" fill="white"></rect></clipPath></defs></svg> 