<?xml version="1.0" encoding="UTF-8"?> <svg xmlns="http://www.w3.org/2000/svg" width="60" height="60" viewBox="0 0 60 60" fill="none"><g clip-path="url(#clip0_1756_312)"><path d="M60 59.9291H0V4.22767C0 2.62496 0.720735 1.90261 2.31699 1.90261C2.80071 1.90261 3.28442 1.90261 3.76814 1.90261C5.02257 1.92035 5.80297 2.72493 5.80458 4.02451C5.80458 8.86166 5.80458 13.6988 5.80458 18.536V19.2841H7.7088V0.00806487H29.0084V7.65882H30.9529V0H52.2364V19.2777H54.2003V18.6198C54.2003 13.8041 54.2003 8.98688 54.2003 4.16801C54.2003 2.65075 54.9452 1.91067 56.4576 1.90261C56.9607 1.90261 57.4653 1.90261 57.9684 1.90261C59.2051 1.91873 59.9903 2.70881 60.0081 3.96324C60.0081 4.08417 60.0081 4.2051 60.0081 4.32603V59.9291H60ZM38.723 42.5476V44.4389H50.2935V30.9658H44.4889V34.7501H34.813V30.9707H29.0793V42.5476H38.723ZM27.0526 7.72009V1.93163H23.2183V5.73041H13.515V1.93647H9.71461V19.2728H21.3076V7.72009H27.0526ZM38.7294 7.6943V19.2696H50.2902V1.9397H46.4205V5.74169H36.7656V1.94615H32.9329V7.6943H38.7294ZM52.2735 29.0213V44.4453H54.1519V25.1645H23.2232C23.2232 25.8465 23.2312 26.4898 23.2232 27.1316C23.2297 28.2481 22.8863 29.3386 22.2412 30.2499C21.9816 30.6111 22.0106 30.8546 22.2154 31.2173C23.5475 33.5657 24.5543 36.0841 25.208 38.7036C25.3112 39.1132 25.208 39.2809 24.8565 39.4324C24.4115 39.6211 23.9858 39.85 23.5666 40.0774C23.4376 40.1467 23.2667 40.2693 23.2441 40.387C23.1409 41.0916 23.0829 41.801 23.0023 42.4927H27.1187V29.0213H52.2735ZM19.3567 56.1287H21.3238V57.991H25.0065C25.0213 57.9252 25.031 57.8583 25.0355 57.791C24.9145 53.7069 21.5866 50.3741 17.496 50.2951C14.8775 50.2483 12.2557 50.2564 9.63721 50.2951C8.60529 50.2996 7.58563 50.519 6.64317 50.9393C5.70071 51.3596 4.85612 51.9715 4.16317 52.7362C2.78459 54.2003 2.1348 55.961 2.06708 57.9813H5.84005V56.1206H7.76362V57.9748H19.3567V56.1287ZM54.1616 57.9942V46.4495H50.2999V52.167H42.5605V46.4511H38.7552V57.9942H54.1616ZM9.67591 48.3199C9.67591 47.2993 9.69042 46.3157 9.6614 45.3321C9.63943 45.2427 9.59855 45.159 9.54154 45.0867C9.48453 45.0144 9.41269 44.9552 9.33086 44.9129C8.78588 44.6098 8.21832 44.3486 7.66204 44.0648C4.30829 42.3508 3.00871 38.7714 4.46308 35.308C4.55319 35.0754 4.55833 34.8184 4.47759 34.5824C4.06285 33.51 3.85495 32.3687 3.86488 31.219C3.87456 22.3337 3.87456 13.4467 3.86488 4.55821V3.86649H1.97517V52.238C5.18704 49.1857 6.25766 48.6375 9.67591 48.3215V48.3199ZM21.2448 25.1838C21.2081 25.1606 21.1677 25.1437 21.1254 25.1338C18.0216 25.1338 14.9129 25.0322 11.8139 25.1661C9.32602 25.2741 7.47662 26.6172 6.42696 28.8842C5.39342 31.1142 5.59497 33.2683 7.11706 35.2531C7.57982 35.8578 8.02644 36.4737 8.50854 37.1235C7.98129 37.5201 7.48791 37.8878 6.97839 38.2699L5.95292 36.9558C5.88965 37.2365 5.84388 37.5208 5.81587 37.8072C5.7675 39.7275 6.55918 41.1932 8.22477 42.1606C8.88585 42.5427 9.58401 42.8604 10.2741 43.1925C10.4054 43.2665 10.5601 43.2872 10.7062 43.2506C11.5688 42.8313 11.8349 41.2303 11.1722 40.5563C10.85 40.252 10.5518 39.9232 10.2806 39.5727C9.2841 38.1796 9.48565 36.2383 10.8804 35.4063C11.7091 34.9113 11.9058 34.2906 11.9945 33.4811C12.0332 33.1216 12.1719 32.7685 12.1751 32.4121C12.1585 32.0695 12.0983 31.7303 11.9961 31.4028C11.8849 30.9578 11.6559 30.5256 11.6317 30.079C11.5221 28.0813 13.2699 26.7398 15.4418 27.1203V28.9858C15.1628 28.9858 14.9226 28.9858 14.6824 28.9858C13.9794 29.0003 13.5537 29.3776 13.5537 29.9694C13.5537 30.5256 13.9777 30.9045 14.6614 30.9142C15.5885 30.9287 16.5173 30.9416 17.4428 30.9142C19.3776 30.8433 20.961 29.5018 21.227 27.6346C21.3399 26.8349 21.2448 26.0013 21.2448 25.1854V25.1838ZM13.3925 36.7123C13.2103 36.7123 13.07 36.7381 12.9329 36.7317C12.3976 36.7043 11.9074 36.7849 11.6898 37.3589C11.4721 37.9329 11.7285 38.3747 12.1203 38.7698C12.5121 39.1648 12.8958 39.5324 13.2699 39.9274C13.4017 40.0434 13.4946 40.1971 13.536 40.3676C13.6601 42.0945 13.3134 43.6553 11.8897 44.8146C11.7752 44.9081 11.6301 45.0548 11.6285 45.179C11.6075 46.219 11.6156 47.2589 11.6156 48.3022H15.5192V44.4727C16.2286 44.4727 16.8736 44.4873 17.5169 44.4727C18.3806 44.4599 19.214 44.1526 19.8793 43.6017C20.5446 43.0507 21.0018 42.2892 21.1754 41.4431C21.3028 40.7981 21.2383 40.1193 21.306 39.4615C21.333 39.2444 21.4414 39.0456 21.6092 38.9052C22.0493 38.5827 22.7959 38.4102 22.9281 38.0135C23.0732 37.5798 22.7056 36.9445 22.4895 36.4302C21.8591 34.9371 21.1915 33.4602 20.624 32.167C19.3986 32.4266 18.3779 32.733 17.3363 32.8394C16.2657 32.949 15.1757 32.8636 14.0777 32.8636C13.8439 34.1632 13.6246 35.4079 13.3925 36.714V36.7123ZM23.2699 9.66624V19.2696H36.743V9.67914H32.8733V13.4634H27.0687V9.66785L23.2699 9.66624ZM56.1722 3.86166V57.9926H58.0313V3.86327L56.1722 3.86166ZM5.83522 23.149H54.1454V21.2835H5.83522V23.149ZM27.0155 57.9894H32.8636V44.5227H23.2264C23.2264 46.4028 23.2151 48.2312 23.2409 50.0693C23.2721 50.2968 23.3871 50.5044 23.5634 50.6514C24.5485 51.4911 25.348 52.5267 25.911 53.6924C26.0851 54.0648 26.298 54.1761 26.6914 54.1616C28.0958 54.1374 29.5018 54.1519 30.9287 54.1519V56.0916H26.7881C26.8671 56.7494 26.9381 57.346 27.0155 57.9894ZM34.8807 44.5034V57.9732H36.743V44.5034H34.8807ZM48.3425 50.2564V46.4608H44.5501V50.2564H48.3425ZM17.454 48.2151L21.2593 49.068V44.9548C20.1963 45.8662 18.8536 46.3868 17.454 46.4302V48.2151ZM15.5192 1.91551V3.79394H17.367V1.91551H15.5192ZM19.3889 3.80362H21.2577V1.94615H19.3889V3.80362ZM40.6079 3.80362V1.95098H38.7375V3.81168L40.6079 3.80362ZM44.4953 1.92519H42.6169V3.78587H44.4889L44.4953 1.92519ZM29.0809 9.66462V11.5253H30.9432V9.66947L29.0809 9.66462ZM36.7865 32.8265H38.6649V30.9787H36.7865V32.8265ZM42.5508 32.8394V30.9658H40.6869V32.8394H42.5508ZM6.73654 25.1596H5.8594V25.9561L6.73654 25.1596Z" fill="#008BBB"></path><path d="M30.9316 48.3168H25.2061V46.4497H30.9316V48.3168Z" fill="#008BBB"></path><path d="M30.9431 50.3257V52.1815H25.1934V50.3257H30.9431Z" fill="#008BBB"></path></g><defs><clipPath id="clip0_1756_312"><rect width="60" height="59.9291" fill="white"></rect></clipPath></defs></svg> 