<?xml version="1.0" encoding="UTF-8"?> <svg xmlns="http://www.w3.org/2000/svg" width="60" height="60" viewBox="0 0 60 60" fill="none"><g clip-path="url(#clip0_1756_316)"><path d="M30.0261 23.1755H48.9463C52.1712 23.1755 54.1754 25.1845 54.1867 28.4175C54.1867 29.4575 53.9545 30.6184 54.3367 31.5069C54.7188 32.3953 55.7218 33.0403 56.478 33.7643C58.945 36.1329 60.2043 39.0111 59.9447 42.4327C59.8109 44.2063 59.4432 45.98 59.1304 47.7408C58.716 50.0772 58.3661 52.4346 57.7728 54.7274C57.3374 56.4092 56.5634 58.0055 55.9136 59.6292C55.8615 59.7126 55.7907 59.7828 55.7067 59.834C55.6227 59.8852 55.5279 59.9161 55.4299 59.9243C51.3816 59.9404 47.3318 59.9404 43.2803 59.9243C43.0948 59.9243 42.8369 59.7114 42.7385 59.5308C42.4821 59.0584 42.416 58.3441 42.0452 58.1071C41.6388 57.8491 40.9584 58.0087 40.3989 58.0087C33.1042 58.0087 25.8102 58.0039 18.5166 57.9942C18.041 57.9942 17.8136 58.1167 17.6427 58.5779C17.1332 59.9501 17.109 59.9404 15.6336 59.9404C12.0073 59.9404 8.37769 59.9404 4.75295 59.9517C4.32244 59.9517 4.12733 59.8243 3.97415 59.4196C3.09538 57.1106 2.02634 54.8693 1.63452 52.3942C1.14111 49.2726 0.549357 46.1654 0.117226 43.0422C-0.33909 39.7335 0.668677 36.8327 2.93414 34.3851C3.75486 33.4982 4.64814 32.6807 5.47693 31.8052C5.66732 31.5888 5.78072 31.3156 5.79942 31.028C5.83811 30.0831 5.8107 29.135 5.81554 28.1885C5.83005 25.2861 7.90363 23.19 10.8141 23.19C17.2154 23.1749 23.6194 23.1701 30.0261 23.1755ZM41.4018 56.048C40.8034 54.0725 40.5541 52.0078 40.6649 49.9466C40.7681 48.2584 40.8939 46.5702 41.0584 44.8868C41.1035 44.416 40.9761 44.2854 40.5343 44.1644C36.8612 43.1647 34.3781 39.4884 34.8779 35.8636C35.4358 31.8084 38.6945 28.9012 42.695 28.9963C45.7779 29.0689 48.1014 30.5346 49.4784 33.2838C50.8716 36.0636 50.5604 38.7854 48.7706 41.3217C48.5529 41.6297 48.4481 41.8828 48.5868 42.2553C49.2559 44.0419 49.9009 45.8365 50.5668 47.6247C50.7281 48.0729 51.0409 48.4132 51.5698 48.3035C52.0986 48.1939 52.2534 47.7698 52.2534 47.249C52.247 40.8799 52.247 34.5114 52.2534 28.1433C52.2534 26.3374 51.0167 25.1136 49.2043 25.1136C36.407 25.1136 23.6097 25.1136 10.8124 25.1136C8.97267 25.1136 7.74884 26.3439 7.74884 28.1966C7.74884 34.5259 7.74884 40.8541 7.74884 47.1813C7.74884 47.7118 7.83752 48.1777 8.42445 48.31C8.98557 48.4293 9.28226 48.0536 9.4564 47.586C10.1191 45.7962 10.785 44.0096 11.409 42.2053C11.4388 42.0671 11.4398 41.9242 11.412 41.7855C11.3843 41.6468 11.3284 41.5153 11.2478 41.3991C9.95787 39.6109 9.4564 37.647 9.79662 35.4638C10.3868 31.5939 13.9728 28.7545 17.9619 28.9995C21.8318 29.2382 25.047 32.5469 25.163 36.4022C25.2321 38.1696 24.6938 39.9073 23.6376 41.3261C22.5815 42.7448 21.0712 43.7591 19.3583 44.1999C18.9681 44.3031 18.8859 44.4547 18.9391 44.8223C19.01 45.3414 19.052 45.8641 19.0648 46.388C19.131 48.5583 19.2535 50.7302 19.2132 52.8989C19.1938 53.947 18.8633 54.9951 18.6714 56.0545L41.4018 56.048ZM54.1835 34.2802V35.0171C54.1835 39.089 54.1835 43.1599 54.1835 47.2296C54.1835 48.8018 53.3692 49.8918 51.9729 50.203C50.6829 50.49 49.4285 49.8579 48.8335 48.439C48.0885 46.6653 47.429 44.8465 46.8099 43.0228C46.4487 41.9586 46.2471 40.8412 45.9601 39.7512C45.7666 39.0159 45.2281 38.6048 44.5751 38.6596C43.922 38.7144 43.4867 39.174 43.3867 39.8963C43.3496 40.1753 43.3286 40.4575 43.3061 40.738C43.1158 43.1889 42.9836 45.6446 42.724 48.0875C42.3821 51.3558 42.6466 54.5178 44.0139 57.5476C44.1526 57.8555 44.28 58.0136 44.6589 58.0103C47.8031 57.9942 50.9474 58.0103 54.09 57.9894C54.2641 57.9894 54.5479 57.862 54.5947 57.7298C55.209 55.9867 55.9362 54.2679 56.3425 52.4749C56.9182 49.9272 57.2503 47.3232 57.6873 44.7433C57.955 43.1534 58.2307 41.5733 57.8921 39.9479C57.3987 37.6212 56.0394 35.8749 54.1867 34.2835L54.1835 34.2802ZM5.8107 34.3512C5.18508 34.9446 4.54979 35.4444 4.03704 36.0491C2.37624 38.0098 1.66354 40.2881 2.03762 42.8422C2.39881 45.3125 2.89705 47.7617 3.23082 50.2336C3.5719 52.7698 4.28188 55.2425 5.33826 57.5734C5.41727 57.7507 5.64462 57.9813 5.80425 57.9829C9.02911 58.0076 12.254 58.0076 15.4788 57.9829C15.5678 57.9713 15.6528 57.9392 15.7273 57.8891C15.8017 57.8391 15.8635 57.7724 15.9077 57.6943C16.6043 56.0819 17.2315 54.4227 17.2896 52.6555C17.3476 50.8512 17.2751 49.0356 17.1702 47.2313C17.0267 44.7788 16.8107 42.3295 16.6011 39.8802C16.5912 39.5639 16.4635 39.2628 16.2431 39.0357C16.0226 38.8087 15.7253 38.6723 15.4095 38.6532C14.7742 38.6064 14.2356 39.0095 14.0454 39.698C13.9051 40.2027 13.7858 40.7122 13.6664 41.2217C13.0715 43.7565 12.2894 46.2203 11.1236 48.5615C10.4867 49.8385 9.26291 50.4787 8.01005 50.1949C6.67174 49.8901 5.81554 48.8163 5.81393 47.3957C5.81393 43.0712 5.81393 38.7386 5.81393 34.3544L5.8107 34.3512ZM12.1153 38.9789C12.4652 38.4951 12.7603 37.9888 13.1618 37.5857C13.2937 37.4727 13.3983 37.3314 13.4678 37.1722C13.5374 37.013 13.57 36.8402 13.5632 36.6666C13.5632 34.7672 14.9757 33.1773 16.8945 32.8807C18.6682 32.6049 20.4644 33.7111 21.0691 35.4605C21.3731 36.3242 21.357 37.2682 21.0238 38.121C20.6906 38.9738 20.0624 39.6787 19.2535 40.1076C19.0455 40.2188 18.8327 40.3188 18.5989 40.43L18.7601 42.3053C20.953 41.9538 22.7912 39.9141 23.1749 37.46C23.5393 35.1381 22.222 32.6436 20.05 31.544C18.9651 30.9906 17.7332 30.7939 16.5299 30.9818C15.3266 31.1697 14.2134 31.7327 13.3488 32.5904C11.6187 34.3109 11.114 36.9859 12.1153 38.9821V38.9789ZM47.8918 38.9305C48.9367 37.0343 48.3497 34.1529 46.4842 32.4405C45.5257 31.5598 44.2987 31.0274 43.0008 30.9291C41.7029 30.8309 40.4097 31.1724 39.3296 31.8987C38.2495 32.625 37.4453 33.6937 37.0466 34.9328C36.648 36.1719 36.6781 37.5091 37.1321 38.7289C37.8287 40.601 39.9264 42.3891 41.2406 42.2263C41.2776 41.8264 41.297 41.4201 41.3583 41.025C41.4244 40.5961 41.3115 40.3639 40.8745 40.1608C40.1304 39.811 39.5203 39.2284 39.1366 38.5011C38.7529 37.7739 38.6164 36.9414 38.7477 36.1297C39.1089 34.0932 40.8729 32.7033 42.8933 32.8645C44.9137 33.0258 46.4326 34.7204 46.4406 36.8295C46.4389 37.0196 46.4951 37.2058 46.6019 37.3632C47.0259 37.9098 47.479 38.4339 47.8983 38.9337L47.8918 38.9305ZM18.1925 38.4468C19.1955 37.9211 19.5824 36.973 19.2293 36.0281C19.063 35.6037 18.7536 35.2506 18.3548 35.0298C17.9559 34.809 17.4925 34.7344 17.0445 34.8188C16.6042 34.8991 16.209 35.1388 15.9344 35.4922C15.6598 35.8457 15.5252 36.2879 15.5562 36.7344C16.7043 36.8585 17.5846 37.4358 18.1925 38.4548V38.4468ZM41.7114 38.3919C42.1564 37.9727 42.5047 37.5357 42.9513 37.2536C43.398 36.9714 43.9704 36.8247 44.4912 36.6183C44.3799 35.5911 43.6963 34.8688 42.7482 34.7849C42.2908 34.7452 41.8343 34.8693 41.46 35.1351C41.0858 35.401 40.8183 35.7912 40.7052 36.2361C40.5864 36.6575 40.6225 37.1076 40.8071 37.5046C40.9917 37.9016 41.3126 38.2193 41.7114 38.4V38.3919Z" fill="#9C881F"></path><path d="M5.85779 7.72997C6.34151 7.72997 6.78493 7.67354 7.21545 7.74126C8.16517 7.89122 8.86174 8.42654 9.3503 9.26501C9.41485 9.36229 9.49975 9.44438 9.59913 9.50563C9.69852 9.56688 9.81003 9.60581 9.92594 9.61973C12.4048 9.64231 14.8831 9.64231 17.3608 9.61973C17.4866 9.6038 17.6074 9.56027 17.7144 9.49225C17.8215 9.42424 17.9121 9.33344 17.98 9.22631C18.5153 8.23628 19.0087 7.22206 19.4957 6.20623C19.6424 5.9047 19.8004 5.75798 20.1729 5.75798C26.7215 5.77195 33.2701 5.77195 39.8187 5.75798C40.1864 5.75798 40.3524 5.89503 40.4992 6.2014C40.9829 7.19949 41.4924 8.17984 41.9665 9.17954C42.1277 9.50203 42.3051 9.65037 42.6921 9.64715C45.13 9.6278 47.568 9.64715 50.006 9.6278C50.2044 9.6278 50.5043 9.52621 50.5849 9.37787C51.246 8.1621 52.2634 7.63807 53.6195 7.70256C53.7807 7.70256 53.942 7.70256 54.1419 7.70256V1.89782H50.343V0H59.9531V1.85913H56.1623V7.69772C56.4848 7.69772 56.796 7.69772 57.112 7.69772C57.8668 7.70226 58.5898 8.00214 59.1262 8.53315C59.6627 9.06417 59.9699 9.7841 59.9821 10.5388C60.0079 11.8675 60.0079 13.1972 59.9821 14.528C59.9707 15.283 59.6631 16.0034 59.1257 16.5339C58.5882 17.0644 57.8639 17.3626 57.1088 17.3642C55.8188 17.3852 54.5289 17.382 53.2389 17.3642C52.0973 17.3481 51.2573 16.8095 50.6591 15.8356C50.5494 15.6551 50.293 15.4503 50.1044 15.4503C45.7508 15.4293 41.3973 15.4341 37.0437 15.4358C36.9529 15.4422 36.8625 15.4535 36.7728 15.4696C36.7728 16.6725 36.7728 17.856 36.7728 19.0395C36.7728 20.4762 36.0102 21.2324 34.567 21.234H25.4359C23.9847 21.234 23.2301 20.4794 23.2268 19.0428C23.2268 17.8592 23.2268 16.6757 23.2268 15.4293H22.6464C18.4541 15.4293 14.2618 15.4293 10.0694 15.4293C9.69698 15.4293 9.47607 15.5019 9.27613 15.8743C8.74726 16.8531 7.87493 17.3529 6.75752 17.3674C5.46758 17.3836 4.17764 17.3868 2.8877 17.3674C2.50855 17.3668 2.13325 17.2914 1.78329 17.1455C1.43333 16.9996 1.11557 16.7862 0.848226 16.5173C0.580878 16.2485 0.369184 15.9295 0.225266 15.5788C0.081348 15.228 0.00803128 14.8523 0.00951617 14.4731C-0.00822052 13.2251 -0.000158386 11.9755 0.00951617 10.7259C0.0208032 8.92478 1.24947 7.71062 3.06184 7.69772C3.3037 7.69772 3.54557 7.69772 3.83097 7.69772V1.90589H0.0385387V0.00322308H9.64215V1.87364H5.85779V7.72997ZM9.70826 13.4621H50.285V11.5659H49.6094C46.9086 11.5659 44.2093 11.5659 41.5085 11.5756C41.3529 11.5952 41.1952 11.561 41.0618 11.4785C40.9283 11.3961 40.827 11.2705 40.7749 11.1225C40.3024 10.1228 39.7832 9.14407 39.3092 8.14437C39.2571 7.99646 39.1563 7.87068 39.0233 7.78774C38.8902 7.7048 38.7329 7.66964 38.5771 7.68805C32.8541 7.70095 27.1316 7.70095 21.4096 7.68805C21.2538 7.67238 21.0973 7.70991 20.9656 7.79452C20.8338 7.87914 20.7346 8.00585 20.684 8.15404C20.21 9.15375 19.6892 10.1325 19.2184 11.1338C19.0571 11.4772 18.8491 11.5788 18.4783 11.5772C15.7774 11.5611 13.0782 11.5675 10.379 11.5675H9.70826V13.4621ZM58.0569 12.5673C58.0569 11.9432 58.0682 11.3176 58.0569 10.6936C58.0407 10.0116 57.6844 9.64069 57.0104 9.63102C55.7817 9.61597 54.5525 9.61597 53.3228 9.63102C52.6407 9.63102 52.2699 10.0019 52.2618 10.6759C52.2457 11.9045 52.2473 13.1348 52.2618 14.3635C52.2618 15.0456 52.6327 15.418 53.3067 15.4261C54.5353 15.4422 55.7656 15.4406 56.9943 15.4261C57.6957 15.4261 58.0472 15.0423 58.0601 14.32C58.0569 13.7411 58.0569 13.1574 58.0569 12.5673ZM4.8468 9.63263C4.24214 9.63263 3.63748 9.62296 3.03282 9.63263C2.31367 9.64553 1.94604 10.0003 1.93959 10.7097C1.92669 11.9191 1.92669 13.1278 1.93959 14.3361C1.93959 15.0552 2.30561 15.4229 3.01508 15.4309C4.2244 15.4438 5.43318 15.4438 6.64143 15.4309C7.36057 15.4309 7.7282 15.0633 7.73627 14.3538C7.74917 13.1445 7.74917 11.9357 7.73627 10.7275C7.73627 10.0083 7.37024 9.64876 6.65916 9.63263C6.06256 9.62135 5.45791 9.63263 4.8468 9.63263ZM27.7158 15.4825H25.2101V19.2798H27.7207C26.8758 17.4626 26.8758 17.1514 27.7223 15.4825H27.7158ZM32.1984 15.4374C33.1078 16.7273 33.1304 18.0011 32.2081 19.2701H34.7879V15.4567C34.6541 15.4567 34.5574 15.4374 34.4655 15.4374H32.1984ZM29.9813 18.3397C30.1733 18.3429 30.3619 18.2889 30.5231 18.1846C30.6843 18.0802 30.8108 17.9303 30.8865 17.7538C30.9622 17.5774 30.9837 17.3823 30.9482 17.1936C30.9127 17.0049 30.8219 16.831 30.6872 16.6941C30.5526 16.5572 30.3803 16.4634 30.1922 16.4248C30.0041 16.3861 29.8087 16.4043 29.631 16.477C29.4533 16.5498 29.3012 16.6737 29.1942 16.8332C29.0872 16.9926 29.03 17.1803 29.03 17.3723C29.0317 17.6261 29.133 17.8691 29.3122 18.0488C29.4913 18.2286 29.734 18.3308 29.9878 18.3333L29.9813 18.3397Z" fill="#9C881F"></path><path d="M25.1875 32.8081V27.0791H34.7863V32.8097L25.1875 32.8081ZM32.8498 30.9038V29.014H27.1434V30.8973L32.8498 30.9038Z" fill="#9C881F"></path><path d="M28.9881 54.1083H21.3242V46.4429H28.9881V54.1083ZM23.2591 48.3633V52.1654H27.0516V48.3633H23.2591Z" fill="#9C881F"></path><path d="M38.6625 54.1083H30.9971V46.4429H38.6625V54.1083ZM36.7276 52.1734V48.3778H32.932V52.1734H36.7276Z" fill="#9C881F"></path><path d="M27.1279 34.8188H28.9887V36.6893H27.1279V34.8188Z" fill="#9C881F"></path><path d="M30.9922 36.6878V34.8286H32.8626V36.6878H30.9922Z" fill="#9C881F"></path><path d="M27.1338 38.666H28.9832V40.5477H27.1338V38.666Z" fill="#9C881F"></path><path d="M32.8609 40.5782H31.0146V38.6997H32.8609V40.5782Z" fill="#9C881F"></path><path d="M29.0055 42.5586V44.4226H27.1318V42.5586H29.0055Z" fill="#9C881F"></path><path d="M30.9941 42.5488H32.8613V44.4257H30.9941V42.5488Z" fill="#9C881F"></path><path d="M32.8569 11.5419H31.001V9.66504H32.8569V11.5419Z" fill="#9C881F"></path><path d="M27.1191 11.5387V9.66504H28.996V11.5322L27.1191 11.5387Z" fill="#9C881F"></path><path d="M34.8623 11.5242V9.66504H36.723V11.5258L34.8623 11.5242Z" fill="#9C881F"></path><path d="M23.2734 9.65381H25.1229V11.5339H23.2734V9.65381Z" fill="#9C881F"></path></g><defs><clipPath id="clip0_1756_316"><rect width="60" height="59.95" fill="white"></rect></clipPath></defs></svg> 