<?xml version="1.0" encoding="UTF-8"?> <svg xmlns="http://www.w3.org/2000/svg" width="60" height="60" viewBox="0 0 60 60" fill="none"><g clip-path="url(#clip0_1756_302)"><path d="M60 13.2421C59.6625 14.5343 59.1063 15.6874 57.9891 16.4999C57.1797 17.0874 56.2859 17.464 55.2797 17.4718C52.9359 17.4921 50.5922 17.4858 48.2484 17.4905C45.95 17.4905 44.5984 18.5843 44.1063 20.8171C43.9781 21.4046 43.8203 21.9858 43.6656 22.6108C43.8063 22.6515 43.9484 22.703 44.0953 22.7343C48.9047 23.7499 52.4469 28.0468 52.4922 32.9577C52.5203 35.9061 52.4922 38.8546 52.4922 41.803V42.5155C52.9453 42.5155 53.35 42.4999 53.7531 42.5155C54.4906 42.5514 54.9719 43.0452 54.975 43.7405C54.9818 43.9029 54.9555 44.065 54.8977 44.2169C54.84 44.3689 54.752 44.5075 54.639 44.6244C54.5261 44.7413 54.3906 44.834 54.2407 44.8969C54.0908 44.9599 53.9297 44.9917 53.7672 44.9905C52.0891 45.0134 50.4099 45.0134 48.7297 44.9905C48.4095 44.9811 48.1056 44.8478 47.8818 44.6186C47.658 44.3895 47.5319 44.0824 47.5301 43.7621C47.5283 43.4419 47.6509 43.1334 47.872 42.9017C48.0932 42.67 48.3956 42.5332 48.7156 42.5202C49.1188 42.4999 49.525 42.5202 49.9656 42.5202C49.9844 42.2967 50.0078 42.1468 50.0078 41.9952C50.0078 39.0655 50.0281 36.1358 50.0078 33.2077C49.9766 29.1671 47.2875 25.9327 43.3516 25.1358C42.7594 25.0171 42.3297 25.0515 41.9156 25.6311C40.9641 26.9702 39.6906 27.9749 38.2297 28.7327C38.0594 28.8218 37.8906 28.9155 37.7328 28.9999C37.9078 30.4218 37.7328 30.9046 37.0063 31.1343C36.2797 31.3639 35.7984 31.0061 35.2875 29.9077H24.7156C24.6875 29.9749 24.6141 30.1483 24.5422 30.3233C24.2578 31.0014 23.625 31.3327 22.9937 31.1327C22.8371 31.0891 22.691 31.0142 22.5643 30.9124C22.4376 30.8106 22.3329 30.6841 22.2566 30.5406C22.1803 30.3971 22.134 30.2395 22.1205 30.0775C22.107 29.9155 22.1266 29.7525 22.1781 29.5983C22.3344 29.1046 22.1984 28.9296 21.7781 28.7202C20.2662 27.9705 18.9593 26.8642 17.9703 25.4968C17.8719 25.3342 17.7252 25.2064 17.5508 25.131C17.3763 25.0557 17.1827 25.0366 16.9969 25.0765C13.5141 25.4765 10.3719 28.5905 10.0938 32.1077C9.9375 34.0311 10.0094 35.9702 9.99375 37.903C9.97969 39.4061 9.99375 40.9077 9.99375 42.5233C10.4047 42.5233 10.7844 42.5233 11.1641 42.5233C11.9609 42.5452 12.5109 43.0624 12.5031 43.7733C12.4953 44.4843 11.9453 45.0061 11.1469 45.0108C9.54688 45.0212 7.94583 45.0212 6.34375 45.0108C5.54531 45.0108 5.01719 44.4842 5.02188 43.7608C5.02656 43.0374 5.53281 42.5546 6.36094 42.5311C6.71094 42.5218 7.05938 42.5311 7.475 42.5311C7.48594 42.2921 7.50156 42.0858 7.50156 41.8811C7.50156 39.0499 7.50156 36.2181 7.50156 33.3858C7.50156 28.053 10.8656 23.8796 16.0797 22.7249C16.1731 22.6978 16.2649 22.6655 16.3547 22.628C16.0906 21.6546 15.9328 20.6421 15.5391 19.7296C14.8891 18.2186 13.6172 17.5233 11.9859 17.514C9.81875 17.5015 7.65157 17.514 5.48281 17.514C2.53594 17.514 0.829688 16.2015 0.0687504 13.3561C0.0609379 13.3233 0.0234375 13.2968 0 13.2655V11.7186C0.025 11.6905 0.0640627 11.6671 0.0734377 11.6343C0.873438 8.7874 2.56094 7.50146 5.5 7.49989H8.72187V2.48428H8.06094C6.6375 2.48428 5.21406 2.50146 3.79219 2.4749C2.76875 2.45615 2.175 1.47647 2.68281 0.645217C2.83906 0.381154 3.15156 0.207715 3.39844 -0.00634766H16.6406C17.4062 0.537402 17.6313 0.999902 17.4344 1.62959C17.2484 2.23115 16.7734 2.48271 15.8203 2.48428H11.2891V7.45771H48.7125V2.48428H48.0391C46.6141 2.48428 45.1896 2.48428 43.7656 2.48428C43.1953 2.48428 42.7797 2.21397 42.5891 1.68584C42.4896 1.44892 42.4704 1.18593 42.5345 0.937079C42.5985 0.688223 42.7423 0.467177 42.9438 0.307716C43.0734 0.195216 43.2172 0.101466 43.3547 -0.00478363H56.6016C57.3906 0.492091 57.6266 0.945214 57.4359 1.59521C57.2453 2.24521 56.7984 2.48428 55.8516 2.48428H51.2844C51.2656 2.70303 51.2422 2.85303 51.2422 3.00303C51.2422 4.47959 51.2422 5.95615 51.2422 7.49521C52.5469 7.49521 53.7891 7.48115 55.0297 7.49521C56.1307 7.5023 57.1986 7.87261 58.0677 8.54869C58.9367 9.22477 59.5583 10.1688 59.8359 11.2343C59.8813 11.3905 59.9453 11.5562 59.9922 11.7171L60 13.2421ZM29.9984 9.98427C21.7984 9.98427 13.599 9.9874 5.4 9.99365C4.91418 9.98475 4.43095 10.0663 3.975 10.2343C2.88125 10.6749 2.32187 11.8593 2.56875 13.0249C2.68533 13.5848 2.99279 14.0867 3.43854 14.445C3.8843 14.8033 4.44066 14.9955 5.0125 14.989C7.37344 15.0046 9.73594 14.989 12.0984 14.989C13.3367 14.9775 14.55 15.3378 15.5812 16.0233C17.2109 17.1046 18.0109 18.6796 18.4109 20.5546C19.2281 24.4077 22.3656 27.1827 26.2875 27.4296C28.6594 27.5749 31.0484 27.4764 33.4297 27.4718C33.8206 27.471 34.2103 27.4286 34.5922 27.3452C38.4797 26.4889 40.8313 24.0874 41.6875 20.2171C42.4141 16.9358 44.7875 14.9968 48.1438 14.9936C50.3885 14.9936 52.6339 14.9936 54.8797 14.9936C55.6875 14.9936 56.3797 14.7296 56.8969 14.1061C57.5547 13.3155 57.7 12.414 57.2781 11.478C56.8234 10.4702 55.9859 9.99052 54.8938 9.98427C52.9219 9.97333 50.9516 9.98427 48.9797 9.98427H29.9984Z" fill="#F86B6B"></path><path d="M13.3595 60.0002C12.4611 59.3564 12.347 59.0002 12.7111 57.9221C12.8032 57.602 12.9175 57.2887 13.0533 56.9846C13.1765 56.7367 13.3817 56.5391 13.634 56.4251C13.8863 56.3112 14.1702 56.2881 14.4377 56.3596C14.6803 56.4039 14.9018 56.5261 15.0687 56.7077C15.2356 56.8893 15.3388 57.1203 15.3627 57.3658C15.4845 58.2033 14.7955 59.5799 14.0626 59.9924L13.3595 60.0002Z" fill="#F86B6B"></path><path d="M45.9371 60C45.2043 59.5875 44.5153 58.2109 44.6371 57.3734C44.6595 57.1276 44.7623 56.896 44.9294 56.7144C45.0966 56.5328 45.319 56.4113 45.5621 56.3687C46.134 56.2453 46.6559 56.4078 46.909 56.9422C47.1565 57.4705 47.3416 58.0257 47.4606 58.5968C47.6074 59.275 47.1481 59.6671 46.6403 60.0031L45.9371 60Z" fill="#F86B6B"></path><path d="M17.9066 50.2968C17.5941 51.1421 17.2566 52.2343 16.7973 53.2765C16.5738 53.7874 15.8848 53.9015 15.3598 53.6921C14.8035 53.4624 14.4504 52.9109 14.6113 52.3343C14.8801 51.3827 15.191 50.4406 15.541 49.5218C15.6472 49.256 15.8474 49.0386 16.1036 48.9109C16.3598 48.7833 16.654 48.7543 16.9301 48.8296C17.5145 48.9609 17.916 49.4593 17.9066 50.2968Z" fill="#F86B6B"></path><path d="M44.0738 53.7877C43.8339 53.774 43.6039 53.6876 43.4144 53.5399C43.2249 53.3922 43.0848 53.1904 43.0129 52.9611C42.7097 52.1018 42.416 51.2424 42.155 50.3627C42.0603 50.0624 42.0878 49.737 42.2314 49.4568C42.375 49.1766 42.6232 48.9643 42.9222 48.8658C43.0676 48.8072 43.2232 48.7779 43.3799 48.7799C43.5367 48.7818 43.6915 48.8148 43.8354 48.877C43.9793 48.9392 44.1094 49.0294 44.2182 49.1423C44.3269 49.2551 44.4122 49.3885 44.4691 49.5346C44.8213 50.4395 45.1264 51.3621 45.3832 52.2986C45.5847 53.0752 44.9597 53.7955 44.0738 53.7877Z" fill="#F86B6B"></path><path d="M20.5001 42.5361C20.1079 43.6095 19.7673 44.7079 19.3017 45.7501C19.0689 46.272 18.3298 46.3751 17.7986 46.1298C17.537 46.0116 17.3262 45.8039 17.2041 45.5441C17.0821 45.2843 17.0568 44.9894 17.1329 44.7126C17.4001 43.797 17.7079 42.8908 18.047 42.0001C18.1523 41.7333 18.3501 41.5132 18.6043 41.3801C18.8585 41.247 19.152 41.2097 19.4314 41.2751C20.0064 41.4033 20.4064 41.908 20.5001 42.5361Z" fill="#F86B6B"></path><path d="M42.8984 44.6955C42.9109 45.5658 42.5656 46.0314 42.0015 46.197C41.4375 46.3626 40.8172 46.1548 40.6093 45.6267C40.2217 44.6515 39.8915 43.6545 39.6203 42.6408C39.464 42.072 39.8453 41.5611 40.3859 41.347C40.9265 41.1329 41.5875 41.2626 41.8187 41.7876C42.2703 42.8111 42.6062 43.8908 42.8984 44.6955Z" fill="#F86B6B"></path><path d="M20.9672 38.7015C20.0407 38.7172 19.4219 37.9766 19.65 37.1734C19.9047 36.2734 20.2047 35.3859 20.5297 34.5172C20.6386 34.2187 20.8599 33.9747 21.1463 33.8372C21.4327 33.6997 21.7615 33.6796 22.0625 33.7813C22.3659 33.8714 22.6211 34.078 22.7725 34.3559C22.9239 34.6338 22.9591 34.9603 22.8704 35.2641C22.6141 36.1625 22.3172 37.05 21.9985 37.9297C21.9273 38.149 21.7899 38.341 21.6053 38.4792C21.4207 38.6174 21.1978 38.6951 20.9672 38.7015Z" fill="#F86B6B"></path><path d="M38.3046 33.7344C38.8531 33.7344 39.2687 33.9813 39.4547 34.4797C39.789 35.3734 40.0797 36.2812 40.3562 37.1969C40.4322 37.4832 40.3998 37.7875 40.2651 38.0514C40.1304 38.3153 39.903 38.5201 39.6265 38.6266C39.039 38.8672 38.3187 38.6594 38.0812 38.0641C37.6948 37.1054 37.3676 36.1238 37.1015 35.125C36.914 34.4094 37.5499 33.7344 38.3046 33.7344Z" fill="#F86B6B"></path></g><defs><clipPath id="clip0_1756_302"><rect width="60" height="60" fill="white"></rect></clipPath></defs></svg> 