<?xml version="1.0" encoding="UTF-8"?> <svg xmlns="http://www.w3.org/2000/svg" width="60" height="60" viewBox="0 0 60 60" fill="none"><g clip-path="url(#clip0_1756_332)"><path d="M50.9768 0C51.1331 0.071875 51.2893 0.148438 51.4456 0.210938C52.0235 0.432784 52.5214 0.823059 52.875 1.33121C53.2285 1.83935 53.4213 2.44195 53.4284 3.06094C53.4346 3.68102 53.2498 4.28799 52.8989 4.7993C52.5481 5.31062 52.0482 5.70148 51.4674 5.91875C51.0409 6.075 50.9659 6.28594 50.9752 6.67969C50.9987 7.63594 50.9862 8.59219 50.9752 9.55C50.9752 10.2766 50.8018 10.4562 50.0846 10.4578C48.4643 10.4578 46.844 10.4578 45.2221 10.4578H44.4971C44.4143 15.8 42.8018 20.5984 39.5315 24.9687H47.9018C48.7612 24.9687 48.9284 25.1359 48.9315 25.9953C48.9315 26.7969 48.9534 27.5984 48.9237 28.3969C48.9096 28.8062 49.0299 29.0016 49.4346 29.1578C50.0966 29.4142 50.6472 29.8954 50.99 30.5171C51.3328 31.1387 51.446 31.8611 51.3096 32.5578C51.1764 33.2431 50.8142 33.8628 50.2826 34.3152C49.7509 34.7677 49.0813 35.0261 48.3835 35.0481C47.6857 35.0701 47.0012 34.8543 46.4421 34.4362C45.883 34.0181 45.4826 33.4224 45.3065 32.7469C45.1108 32.012 45.1989 31.2304 45.5532 30.5576C45.9076 29.8847 46.5023 29.3699 47.219 29.1156C47.5612 28.9859 47.6643 28.8313 47.6549 28.4906C47.6331 27.7719 47.6549 27.0531 47.6549 26.3031C47.4284 26.2875 47.2612 26.2641 47.0924 26.2641C44.3784 26.2641 41.6627 26.2547 38.9487 26.2766C38.6706 26.2823 38.4045 26.3909 38.2018 26.5812C35.9909 28.9906 33.3127 30.7562 30.4393 32.2484C30.2941 32.3089 30.1379 32.3387 29.9806 32.3361C29.8233 32.3334 29.6683 32.2982 29.5252 32.2328C26.6565 30.7328 23.9737 28.9719 21.7784 26.5469C21.6409 26.3937 21.4517 26.2969 21.2471 26.275C18.3768 26.2844 15.5065 26.3172 12.6362 26.3453C12.5391 26.3578 12.443 26.3771 12.3487 26.4031C12.3487 27.1844 12.3237 27.9656 12.3705 28.7312C12.3705 28.8766 12.6534 29.0516 12.8393 29.1297C13.3161 29.3182 13.7381 29.6229 14.0672 30.0161C14.3962 30.4093 14.6218 30.8784 14.7234 31.381C14.825 31.8835 14.7994 32.4035 14.649 32.8936C14.4985 33.3837 14.2279 33.8284 13.8619 34.1874C13.4958 34.5463 13.0458 34.8081 12.5528 34.9489C12.0598 35.0897 11.5395 35.1051 11.0391 34.9936C10.5386 34.8822 10.074 34.6474 9.68734 34.3107C9.30071 33.974 9.00436 33.546 8.82522 33.0656C8.54409 32.3265 8.56342 31.5066 8.87909 30.7816C9.19476 30.0565 9.7817 29.4837 10.5143 29.1859C10.9518 29.0094 11.1018 28.8016 11.0783 28.3406C11.0393 27.5594 11.0627 26.7781 11.069 25.9969C11.0752 25.2156 11.2377 25.0672 11.9971 25.0594L19.7877 24.9844C19.9737 24.9844 20.1596 24.9672 20.4455 24.9547C17.2174 20.6344 15.5799 15.8453 15.5049 10.4609H14.8315C13.1909 10.4609 11.5502 10.4609 9.9096 10.4609C9.19241 10.4609 9.02366 10.2812 9.02054 9.55156C9.02054 8.53594 9.0346 7.52031 9.00491 6.50625C8.99438 6.4046 8.96075 6.3067 8.90659 6.22004C8.85243 6.13338 8.77917 6.06026 8.69241 6.00625C7.31585 5.40781 6.54241 4.33281 6.57835 3.00469C6.61585 1.64688 7.43929 0.61719 8.89398 0.10469C8.94293 0.0774497 8.98767 0.043234 9.02679 0.00312328H10.1987C10.3065 0.0453108 10.4127 0.0921871 10.5221 0.126562C11.1477 0.305574 11.7001 0.678784 12.0997 1.19229C12.4993 1.7058 12.7253 2.33303 12.7451 2.98339C12.765 3.63375 12.5776 4.27358 12.21 4.81048C11.8424 5.34737 11.3137 5.75353 10.7002 5.97031C10.5752 6.01875 10.4518 6.07188 10.3565 6.11094V9.13125H15.5127C15.5127 8.08906 15.5424 7.1 15.5034 6.10312C15.4768 5.44844 15.7377 5.12813 16.3534 4.91406C20.7159 3.39844 25.0643 1.84375 29.4284 0.332813C29.8065 0.2125 30.2127 0.2125 30.5909 0.332813C34.9362 1.83906 39.269 3.37813 43.6049 4.90938C44.4643 5.2125 44.5034 5.26719 44.5049 6.15938C44.5049 7.14688 44.5049 8.13594 44.5049 9.14062H49.6987V6.11719C49.4502 6.01875 49.2659 5.96094 49.0893 5.875C47.9706 5.375 47.2143 4.23438 47.2659 3.03906C47.3206 1.73281 47.9581 0.790626 49.1549 0.245314C49.3659 0.148439 49.5893 0.08125 49.8081 0H50.9768ZM16.7846 9.53125L16.6674 9.54219C16.8237 11.2094 16.8549 12.9047 17.1815 14.5422C18.6471 21.8594 22.8377 27.1672 29.344 30.7234C29.8049 30.975 30.1659 31.0219 30.6143 30.7141C31.1284 30.3625 31.708 30.1031 32.233 29.7766C37.7237 26.387 41.2039 21.5505 42.6737 15.2672C43.3549 12.3609 43.2002 9.40781 43.1971 6.4625C43.1971 6.30625 42.9815 6.06094 42.8143 5.99375C38.6653 4.5125 34.5112 3.04584 30.3518 1.59375C30.1345 1.52022 29.8998 1.51585 29.6799 1.58125C25.5028 3.03958 21.331 4.51406 17.1643 6.00469C17.0661 6.05902 16.9822 6.13571 16.9192 6.22856C16.8562 6.3214 16.816 6.42778 16.8018 6.53906C16.7659 7.53906 16.7846 8.53594 16.7846 9.53281V9.53125ZM11.4612 3.07969C11.4646 2.72246 11.3617 2.37228 11.1656 2.07366C10.9695 1.77504 10.6891 1.54146 10.3599 1.40261C10.0308 1.26375 9.66778 1.22588 9.31706 1.29383C8.96634 1.36177 8.64373 1.53245 8.39024 1.78417C8.13675 2.0359 7.96382 2.3573 7.89343 2.70754C7.82304 3.05778 7.85837 3.42104 7.99493 3.75116C8.13149 4.08127 8.36311 4.36333 8.66035 4.5615C8.9576 4.75966 9.30704 4.86498 9.66429 4.86406C10.1362 4.85691 10.587 4.66722 10.922 4.3348C11.2571 4.00238 11.4503 3.55309 11.4612 3.08125V3.07969ZM52.1409 3.09844C52.148 2.74101 52.0486 2.38955 51.8554 2.08877C51.6622 1.78799 51.3838 1.5515 51.0558 1.4094C50.7277 1.26729 50.3648 1.226 50.0133 1.29077C49.6617 1.35555 49.3373 1.52345 49.0815 1.77313C48.8256 2.0228 48.6498 2.34296 48.5764 2.69285C48.5031 3.04274 48.5355 3.40654 48.6695 3.73796C48.8036 4.06938 49.0332 4.35344 49.3291 4.55397C49.6251 4.7545 49.974 4.86244 50.3315 4.86406C50.8031 4.86263 51.2557 4.67772 51.5934 4.34846C51.9311 4.01921 52.1275 3.57146 52.1409 3.1V3.09844ZM11.7393 30.2141C11.3878 30.2095 11.0428 30.3092 10.7479 30.5006C10.4531 30.6919 10.2216 30.9664 10.0827 31.2894C9.94374 31.6123 9.90365 31.9691 9.96747 32.3148C10.0313 32.6605 10.1961 32.9795 10.4412 33.2316C10.6862 33.4836 11.0005 33.6574 11.3443 33.7309C11.688 33.8044 12.0459 33.7743 12.3726 33.6445C12.6993 33.5147 12.9801 33.291 13.1797 33.0016C13.3793 32.7123 13.4887 32.3702 13.494 32.0187C13.4996 31.7844 13.4584 31.5513 13.3728 31.3331C13.2873 31.1149 13.159 30.9159 12.9956 30.7479C12.8322 30.5798 12.637 30.4461 12.4212 30.3544C12.2055 30.2627 11.9737 30.215 11.7393 30.2141ZM48.2784 33.7703C48.6302 33.7715 48.9745 33.6684 49.2678 33.4741C49.5611 33.2797 49.7902 33.0027 49.9261 32.6782C50.062 32.3536 50.0987 31.9961 50.0315 31.6507C49.9643 31.3053 49.7962 30.9876 49.5485 30.7377C49.3008 30.4879 48.9846 30.317 48.6398 30.2468C48.2951 30.1765 47.9372 30.2101 47.6115 30.3431C47.2858 30.4762 47.0068 30.7029 46.8099 30.9944C46.6129 31.286 46.5068 31.6294 46.5049 31.9812C46.5014 32.2159 46.5447 32.4488 46.6324 32.6664C46.7201 32.8841 46.8503 33.082 47.0155 33.2486C47.1807 33.4153 47.3775 33.5473 47.5943 33.6368C47.8112 33.7264 48.0437 33.7718 48.2784 33.7703Z" fill="white" stroke="#0D9635"></path><path d="M3.51593 60C3.33936 59.9281 3.1628 59.8562 2.98624 59.7812C1.73624 59.2562 0.97843 58.3297 0.945618 56.9687C0.89093 54.6469 0.929991 52.3219 0.923741 50C0.923741 49.4891 1.17374 49.2453 1.66905 49.2188C1.78624 49.2188 1.90343 49.2188 2.02061 49.2188H21.8175C22.7815 49.2188 22.9378 49.375 22.9394 50.3359V53.0531H37.0737C37.0737 52.0891 37.0737 51.1562 37.0737 50.2234C37.0737 49.4125 37.2612 49.2297 38.0784 49.2297H58.1097C58.9065 49.2297 59.0784 49.4 59.08 50.1859C59.08 52.1188 59.0144 54.0547 59.0987 55.9828C59.1894 57.9969 58.4534 59.3766 56.4831 60H3.51593ZM21.6581 50.5516H2.20968C2.20968 52.5984 2.20968 54.6063 2.20968 56.6141C2.20968 57.9547 2.97374 58.7141 4.32218 58.7141C21.444 58.7141 38.5664 58.7141 55.6894 58.7141C57.0315 58.7141 57.7909 57.9547 57.7972 56.6078C57.7972 54.7531 57.7972 52.8984 57.7972 51.0437C57.7972 50.8781 57.7706 50.7109 57.7565 50.5516H38.3534C38.3534 51.5406 38.3534 52.4937 38.3534 53.4469C38.3534 54.1891 38.1644 54.3703 37.4159 54.3703H22.5894C21.8425 54.3703 21.6612 54.1859 21.6519 53.4328C21.655 52.4828 21.6581 51.5313 21.6581 50.5516Z" fill="white" stroke="#0D9635"></path><path d="M60.0001 16.172C59.9454 16.2923 59.8829 16.4079 59.8438 16.5313C59.6397 17.1371 59.252 17.6642 58.7345 18.0394C58.2171 18.4147 57.5956 18.6195 56.9565 18.6253C56.3173 18.6311 55.6922 18.4378 55.168 18.072C54.6438 17.7063 54.2465 17.1863 54.0313 16.5845C53.9829 16.4579 53.9298 16.3329 53.8751 16.1813C52.7032 16.1813 51.5313 16.1813 50.3641 16.1813C49.7516 16.1813 49.4266 15.9516 49.4673 15.5251C49.5157 14.9891 49.8985 14.9001 50.3501 14.9001C51.4032 14.9001 52.4563 14.9157 53.5094 14.886C53.6113 14.8735 53.7089 14.8381 53.795 14.7823C53.881 14.7266 53.9533 14.652 54.0063 14.5642C54.6079 13.197 55.6969 12.4251 57.0188 12.4798C58.411 12.5376 59.436 13.3595 59.9094 14.7954C59.9382 14.867 59.9722 14.9365 60.011 15.0032L60.0001 16.172ZM58.7126 15.5548C58.715 15.1983 58.6114 14.8492 58.415 14.5518C58.2185 14.2544 57.938 14.0222 57.6091 13.8846C57.2803 13.7471 56.918 13.7104 56.5682 13.7794C56.2185 13.8483 55.8972 14.0197 55.6452 14.2717C55.3931 14.5238 55.2217 14.8451 55.1528 15.1948C55.0838 15.5445 55.1205 15.9069 55.258 16.2357C55.3956 16.5645 55.6278 16.845 55.9252 17.0415C56.2226 17.238 56.5718 17.3416 56.9282 17.3392C57.3991 17.3315 57.8485 17.1411 58.1815 16.8081C58.5145 16.4751 58.7049 16.0256 58.7126 15.5548Z" fill="white" stroke="#0D9635"></path><path d="M0 14.9999C0.06875 14.8202 0.137503 14.639 0.207815 14.4593C0.425822 13.8796 0.814446 13.3797 1.32242 13.0254C1.83039 12.6711 2.43383 12.4792 3.05313 12.4749C3.66292 12.4608 4.26235 12.6342 4.77038 12.9718C5.27841 13.3093 5.67054 13.7948 5.89375 14.3624C6.06719 14.8312 6.3 14.9218 6.74219 14.9077C7.65937 14.8765 8.57656 14.9077 9.49375 14.8968C9.95313 14.8968 10.3437 15.0155 10.3406 15.553C10.3375 16.0905 9.93906 16.189 9.48125 16.178C8.37031 16.1687 7.25781 16.178 6.13906 16.178C6.07813 16.3249 6.025 16.4484 5.98281 16.5734C5.48906 17.8405 4.35781 18.6343 3.06094 18.6218C2.42268 18.612 1.80285 18.4063 1.2853 18.0327C0.767739 17.659 0.377436 17.1354 0.167189 16.5327C0.121876 16.4093 0.0593761 16.2921 0.0109386 16.1718L0 14.9999ZM3.10313 17.3437C3.45864 17.3392 3.80482 17.2293 4.09771 17.0277C4.3906 16.8261 4.61698 16.5421 4.7481 16.2116C4.87923 15.8811 4.90918 15.5191 4.83416 15.1716C4.75914 14.824 4.58253 14.5066 4.32676 14.2597C4.07099 14.0127 3.7476 13.8473 3.39765 13.7845C3.04769 13.7217 2.68697 13.7643 2.36128 13.9069C2.0356 14.0496 1.75964 14.2857 1.56845 14.5855C1.37726 14.8853 1.27948 15.2351 1.2875 15.5906C1.30681 16.0597 1.50635 16.5033 1.84456 16.829C2.18278 17.1547 2.63359 17.3374 3.10313 17.339V17.3437Z" fill="white" stroke="#0D9635"></path><path d="M55.0746 32.7766C55.0746 35.8798 55.0746 38.9829 55.0746 42.086C55.0746 42.2626 55.1371 42.4829 55.0543 42.6032C54.8981 42.836 54.6809 43.1345 54.4434 43.1813C54.0856 43.2548 53.8356 42.9782 53.7981 42.5891C53.7809 42.4141 53.7981 42.2376 53.7981 42.0626V23.6251C53.7981 22.0438 53.0903 21.336 51.5168 21.336H45.7715C45.634 21.336 45.4981 21.336 45.3606 21.336C44.9496 21.3188 44.6731 21.111 44.6699 20.6985C44.6668 20.286 44.9403 20.0547 45.3512 20.0547C47.6153 20.0547 49.8825 20.0016 52.1434 20.0798C53.8106 20.1376 55.0637 21.5813 55.0715 23.3001C55.0856 26.4532 55.0746 29.6141 55.0746 32.7766Z" fill="white" stroke="#0D9635"></path><path d="M6.21405 32.8359V42.1C6.21405 42.275 6.27655 42.4969 6.19374 42.6172C6.03749 42.8469 5.79218 43.1734 5.5828 43.175C5.37343 43.1766 5.11405 42.8625 4.9578 42.6344C4.87343 42.5172 4.93436 42.2922 4.93436 42.1172C4.93436 35.9464 4.93436 29.775 4.93436 23.6031C4.93436 21.35 6.24061 20.0484 8.50312 20.0469C10.475 20.0469 12.4474 20.0469 14.4203 20.0469C15.0281 20.0469 15.375 20.2828 15.3375 20.6969C15.2859 21.2609 14.8781 21.3406 14.4 21.3391C12.3698 21.3307 10.3385 21.3307 8.30624 21.3391C7.0078 21.3391 6.21874 22.1203 6.21718 23.4141C6.21093 26.5516 6.20989 29.6922 6.21405 32.8359Z" fill="white" stroke="#0D9635"></path><path d="M41.22 39.0032H48.8293C49.0059 39.0032 49.2184 38.9501 49.3481 39.0297C49.5575 39.1594 49.834 39.3641 49.8575 39.5626C49.8809 39.761 49.6668 40.0454 49.4778 40.1875C49.334 40.2985 49.0684 40.2766 48.8528 40.2766C43.7788 40.2766 38.7054 40.2766 33.6325 40.2766C33.5153 40.2766 33.3981 40.2766 33.2825 40.2766C32.8621 40.2375 32.5543 40.05 32.584 39.586C32.6106 39.1594 32.8965 39.0001 33.3121 39.0001C34.7184 39.0001 36.1246 39.0001 37.5309 39.0001L41.22 39.0032Z" fill="white" stroke="#0D9635"></path><path d="M41.2267 45.3906C38.71 45.3906 36.1928 45.3906 33.6751 45.3906C33.4814 45.3906 33.247 45.4391 33.1017 45.35C32.8939 45.2234 32.611 44.9875 32.6173 44.8047C32.6173 44.5828 32.861 44.325 33.0626 44.1656C33.1907 44.0656 33.4376 44.1047 33.6314 44.1047C38.7053 44.1047 43.7782 44.1047 48.8501 44.1047C49.0438 44.1047 49.2845 44.0719 49.4204 44.1687C49.6173 44.3109 49.8814 44.575 49.8595 44.7547C49.8314 44.9766 49.5689 45.2094 49.3517 45.3516C49.2126 45.4438 48.972 45.3906 48.7767 45.3906C46.2662 45.3927 43.7496 45.3927 41.2267 45.3906Z" fill="white" stroke="#0D9635"></path><path d="M18.158 39.003C20.5189 39.003 22.8814 39.003 25.2423 39.003C25.6845 39.003 26.0877 39.0467 26.1345 39.6014C26.172 40.0389 25.8595 40.2842 25.2486 40.2842C20.5069 40.2842 15.7673 40.2842 11.0298 40.2842C10.3752 40.2842 10.0252 39.9592 10.147 39.4936C10.258 39.0717 10.5798 39.0014 10.9642 39.003C13.358 39.0061 15.758 39.003 18.158 39.003Z" fill="white" stroke="#0D9635"></path><path d="M18.1637 45.3908C15.8418 45.3908 13.5194 45.3908 11.1965 45.3908C11.0027 45.3908 10.7652 45.4377 10.623 45.3471C10.4184 45.2158 10.1543 44.983 10.1543 44.783C10.1543 44.583 10.3762 44.3143 10.5715 44.1783C10.7277 44.0721 10.9855 44.1049 11.1965 44.1049C15.8215 44.1049 20.4465 44.1049 25.0715 44.1049C25.2279 44.0988 25.3846 44.1045 25.5402 44.1221C25.9137 44.1768 26.1559 44.3783 26.1387 44.7814C26.1215 45.1846 25.8637 45.3814 25.4793 45.3814C24.5824 45.3939 23.684 45.3908 22.7871 45.3908C21.2486 45.3929 19.7074 45.3929 18.1637 45.3908Z" fill="#0D9635" stroke="#0D9635"></path><path d="M54.5174 47.0641C54.3016 47.0564 54.0966 46.9674 53.9437 46.815C53.7907 46.6626 53.7009 46.458 53.6924 46.2423C53.6942 46.1303 53.7182 46.0198 53.7631 45.9172C53.808 45.8147 53.8728 45.722 53.9537 45.6447C54.0347 45.5673 54.1302 45.5069 54.2348 45.4667C54.3393 45.4266 54.4508 45.4077 54.5627 45.411C54.6697 45.415 54.7748 45.4402 54.8721 45.485C54.9693 45.5297 55.0568 45.5933 55.1294 45.672C55.202 45.7507 55.2583 45.843 55.2951 45.9435C55.3319 46.0441 55.3485 46.1509 55.3439 46.2579C55.3394 46.4738 55.2503 46.6793 55.0956 46.8302C54.941 46.981 54.7334 47.065 54.5174 47.0641Z" fill="white" stroke="#0D9635"></path><path d="M13.2359 16.2892C13.0202 16.286 12.8144 16.1985 12.6623 16.0455C12.5102 15.8926 12.4239 15.6862 12.4219 15.4705C12.4213 15.3075 12.4691 15.1479 12.5594 15.0122C12.6497 14.8765 12.7783 14.7707 12.9289 14.7082C13.0795 14.6458 13.2452 14.6295 13.4051 14.6615C13.5649 14.6935 13.7116 14.7723 13.8266 14.8879C13.9415 15.0035 14.0195 15.1507 14.0505 15.3107C14.0816 15.4707 14.0644 15.6364 14.0011 15.7866C13.9378 15.9368 13.8312 16.0648 13.695 16.1543C13.5587 16.2438 13.399 16.2908 13.2359 16.2892Z" fill="white" stroke="#0D9635"></path><path d="M47.4027 15.4451C47.4077 15.6095 47.3636 15.7715 47.276 15.9106C47.1883 16.0497 47.0612 16.1595 46.9109 16.226C46.7606 16.2925 46.5938 16.3127 46.432 16.2839C46.2701 16.2552 46.1205 16.1788 46.0023 16.0646C45.884 15.9504 45.8025 15.8035 45.7682 15.6427C45.7339 15.4819 45.7483 15.3146 45.8096 15.162C45.8708 15.0095 45.9762 14.8787 46.1122 14.7863C46.2482 14.694 46.4087 14.6443 46.5731 14.6436C46.7888 14.6419 46.9966 14.7249 47.1517 14.8748C47.3069 15.0247 47.397 15.2295 47.4027 15.4451Z" fill="white" stroke="#0D9635"></path><path d="M6.37306 46.239C6.36998 46.4547 6.28408 46.661 6.13313 46.8152C5.98218 46.9693 5.77774 47.0595 5.56212 47.0671C5.45316 47.0666 5.34537 47.0446 5.24491 47.0025C5.14444 46.9603 5.05327 46.8987 4.97659 46.8213C4.89991 46.7439 4.83922 46.6522 4.798 46.5513C4.75678 46.4505 4.73582 46.3425 4.73634 46.2335C4.73685 46.1246 4.75882 46.0168 4.80099 45.9163C4.84316 45.8158 4.9047 45.7247 4.98211 45.648C5.05952 45.5713 5.15127 45.5106 5.25213 45.4694C5.35299 45.4282 5.46097 45.4072 5.56993 45.4077C5.78587 45.4138 5.99084 45.5043 6.14095 45.6596C6.29105 45.815 6.37437 46.023 6.37306 46.239Z" fill="white" stroke="#0D9635"></path><path d="M25.2856 12.8391C25.2856 11.7266 25.2856 10.597 25.2856 9.46727C25.2965 7.35164 26.5934 6.04383 28.7231 6.01883C29.6012 6.00789 30.4793 6.0032 31.3574 6.01883C33.409 6.05789 34.7043 7.3704 34.7184 9.41883C34.7184 10.5657 34.7184 11.7126 34.7184 12.8407C35.0949 12.9813 35.4449 13.0579 35.7402 13.2313C36.4027 13.622 36.6777 14.2423 36.6777 15.0032C36.6777 17.2673 36.6777 19.5344 36.6777 21.7954C36.6777 23.2016 35.9137 23.9735 34.5074 23.9829C32.1856 23.9938 29.8637 23.9829 27.5402 23.9829C26.8371 23.9829 26.134 23.9954 25.4324 23.9829C24.1012 23.9563 23.3371 23.1782 23.334 21.8454C23.334 19.6402 23.334 17.435 23.334 15.2298C23.334 13.8688 23.7762 13.297 25.098 12.9407C25.1637 12.913 25.2265 12.879 25.2856 12.8391ZM30.0012 22.7063C31.484 22.7063 32.9699 22.7063 34.4496 22.7063C35.1824 22.7063 35.3871 22.4954 35.3871 21.7688C35.3871 19.5657 35.3871 17.3615 35.3871 15.1563C35.3871 14.4251 35.1855 14.2188 34.4496 14.2188C31.484 14.2188 28.5189 14.2188 25.5543 14.2188C24.8199 14.2188 24.6168 14.4251 24.6168 15.1563C24.6168 17.3605 24.6168 19.5647 24.6168 21.7688C24.6168 22.4985 24.8184 22.7063 25.5543 22.7063C27.0418 22.711 28.5199 22.7063 30.0012 22.7063ZM33.4309 12.9001C33.4309 11.6391 33.4465 10.4501 33.4309 9.26102C33.4121 8.14539 32.698 7.36883 31.5809 7.3157C30.5293 7.2657 29.4715 7.27352 28.4199 7.3157C27.5246 7.35164 26.7012 7.9407 26.6496 8.74695C26.5559 10.1173 26.623 11.4985 26.623 12.9001H33.4309Z" fill="white" stroke="#0D9635"></path><path d="M28.0021 17.5125C27.9927 16.3063 28.6599 15.4969 29.6442 15.2969C30.0895 15.2181 30.5483 15.2915 30.9469 15.5052C31.3454 15.7189 31.6604 16.0605 31.8411 16.475C32.2271 17.3625 31.938 18.4516 31.0958 18.9422C30.7021 19.1734 30.6067 19.425 30.6271 19.8297C30.6474 20.2344 30.6271 20.6891 30.6271 21.1188C30.6271 21.5484 30.4333 21.8531 29.9708 21.8422C29.5411 21.8328 29.363 21.5391 29.3583 21.1344C29.3583 20.6656 29.3396 20.1969 29.3583 19.7281C29.3739 19.386 29.2958 19.1688 28.9583 18.9828C28.6858 18.8408 28.4546 18.6309 28.2871 18.3733C28.1195 18.1157 28.0214 17.8192 28.0021 17.5125ZM30.713 17.2C30.6833 16.8344 30.4427 16.5844 30.0177 16.5484C29.9199 16.5451 29.8224 16.5621 29.7315 16.5983C29.6407 16.6346 29.5583 16.6894 29.4897 16.7591C29.4211 16.8289 29.3677 16.9122 29.333 17.0037C29.2983 17.0952 29.283 17.1929 29.288 17.2906C29.3021 17.7344 29.563 17.9719 29.9817 18.011C30.4005 18.05 30.7208 17.6828 30.713 17.2Z" fill="white" stroke="#0D9635"></path></g><defs><clipPath id="clip0_1756_332"><rect width="60" height="60" fill="white"></rect></clipPath></defs></svg> 