<?xml version="1.0" encoding="UTF-8"?> <svg xmlns="http://www.w3.org/2000/svg" width="65" height="61" viewBox="0 0 65 61" fill="none"><g clip-path="url(#clip0_1756_349)"><path d="M66 35.1495H61.8495V39.339H64.9624C64.9624 39.6775 64.9624 39.9348 64.9624 40.1989C64.9437 41.509 65.0267 42.8327 64.8794 44.1276C64.6289 46.3282 62.7923 47.8144 60.6256 47.75C58.4895 47.6874 56.8103 46.0963 56.5902 43.933C56.5902 43.85 56.5665 43.7637 56.5462 43.6266H42.798C43.1941 45.5106 42.1464 46.9037 41.1307 48.2595C39.8455 49.9673 37.9985 51.1662 35.9155 51.645C30.812 52.9179 25.7982 50.1198 24.1901 45.0942C24.0513 44.6676 24.1715 44.1564 24.1715 43.6283H10.4639C10.4233 43.9076 10.3996 44.1767 10.3421 44.4408C10.1426 45.4027 9.60946 46.2631 8.83693 46.8699C8.0644 47.4767 7.10221 47.7908 6.12044 47.7568C4.08919 47.7026 2.34063 46.2503 2.1375 44.2021C1.98346 42.6381 2.10703 41.0452 2.10703 39.3965H5.15391V35.1648H1V33.1335H3.10065C3.10065 32.7273 3.0905 32.3938 3.10065 32.062C3.17682 30.2 4.51745 28.9017 6.3168 28.9288C8.04844 28.9559 9.36367 30.3321 9.3806 32.145C9.3806 32.4378 9.3806 32.7306 9.3806 33.103H11.4508V35.1749H7.34258V39.3576H10.4064V41.4532C10.6637 41.4667 10.8634 41.487 11.0648 41.487C15.4439 41.487 19.8246 41.4786 24.2036 41.5023C24.7199 41.5023 24.8807 41.316 24.9891 40.8573C25.3276 39.3677 25.3496 39.3711 26.868 39.3711C31.5855 39.3711 36.3031 39.3711 41.0224 39.3593C41.5217 39.3593 41.6995 39.5116 41.8214 39.9924C42.1751 41.4938 42.1971 41.4887 43.7493 41.4887H56.5733V39.3779H59.6574V35.1969H55.5475V33.1098H57.6211C57.6211 32.6849 57.6092 32.3125 57.6211 31.9401C57.6445 31.1501 57.9667 30.3983 58.5228 29.8365C59.0789 29.2748 59.8274 28.9449 60.6172 28.9136C62.3302 28.8645 63.7081 30.0528 63.8672 31.7285C63.9095 32.1653 63.9129 32.6071 63.9366 33.1166H66V35.1495ZM26.7766 45.7069C27.523 48.0259 30.7781 49.9539 33.7641 49.8676C36.5147 49.7881 39.6801 47.7483 40.2065 45.7069H26.7766ZM40.5298 43.5386C40.3792 42.941 40.2251 42.4349 40.132 41.9203C40.0711 41.5818 39.9154 41.4735 39.5819 41.4819C38.8202 41.5022 38.0585 41.4819 37.2984 41.4819C34.0451 41.4819 30.79 41.4819 27.5349 41.4819C27.3335 41.4819 26.9915 41.5564 26.9509 41.6766C26.7546 42.2623 26.6395 42.875 26.4837 43.5233L40.5298 43.5386ZM4.15859 41.5175C4.15859 42.264 4.14336 42.9394 4.15859 43.6131C4.1623 44.1359 4.36273 44.6381 4.71999 45.0199C5.07726 45.4016 5.56515 45.6348 6.08659 45.6731C7.11745 45.756 8.1263 45.0383 8.27018 43.9804C8.37682 43.1814 8.2905 42.3554 8.2905 41.5259L4.15859 41.5175ZM58.6638 41.5175C58.6638 42.3046 58.6147 43.0409 58.6756 43.7722C58.7209 44.2835 58.9532 44.7601 59.328 45.1108C59.7028 45.4616 60.1937 45.6617 60.7069 45.6731C61.6971 45.7002 62.6806 44.9723 62.7923 43.9973C62.8854 43.1916 62.8109 42.3655 62.8109 41.5175H58.6638ZM7.28503 33.0658C7.25456 32.3582 7.52031 31.6016 6.78568 31.1937C6.61185 31.1146 6.42283 31.0745 6.23188 31.0763C6.04093 31.078 5.85268 31.1216 5.68034 31.2038C4.96094 31.6219 5.21992 32.3735 5.21484 33.0658H7.28503ZM59.7082 33.0658H61.7818C61.7818 32.3769 62.0374 31.6287 61.323 31.2038C61.1516 31.1203 60.9641 31.0753 60.7735 31.0718C60.5828 31.0682 60.3938 31.1064 60.2194 31.1835C59.478 31.5914 59.7505 32.3549 59.7082 33.0759V33.0658Z" fill="#C2247A"></path><path d="M38.0919 18.1802L34.5998 15.3974V31.0448C36.0403 30.8908 37.4774 30.8383 38.8739 30.5573C40.3976 30.2295 41.8983 29.8026 43.3664 29.2793C44.0604 29.0406 44.9778 28.6886 44.9727 27.8473C44.9727 27.05 44.0587 26.7538 43.4053 26.4356C41.7126 25.6146 39.8878 25.2507 38.0411 25.0018C37.8938 24.9815 37.711 25.0137 37.6061 24.9392C37.2845 24.7056 36.8782 24.4873 36.714 24.1589C36.5024 23.7323 36.736 23.3024 37.1355 23.0044C38.1359 22.2613 39.1329 21.5132 40.2111 20.7091L41.4502 22.3578L40.377 23.233C40.8848 23.3667 41.3013 23.4462 41.7024 23.5918C42.7181 23.9574 43.7337 24.3146 44.7087 24.7496C45.1859 24.9779 45.6241 25.2801 46.007 25.6451C47.5304 27.0246 47.505 28.7833 45.9376 30.1274C44.7391 31.1565 43.297 31.7541 41.7854 32.0706C39.8472 32.4751 37.8735 32.7104 35.9117 33.0033C35.4766 33.0693 35.0332 33.071 34.5575 33.1031V37.2537H32.4975V33.1235C31.4277 33.0354 30.4222 32.9796 29.4252 32.8645C26.9809 32.5835 24.5688 32.1501 22.3666 30.9822C21.7866 30.6796 21.2526 30.296 20.7805 29.843C19.555 28.6479 19.5263 27.0263 20.7805 25.8634C21.4583 25.262 22.2209 24.7635 23.0437 24.384C24.8329 23.5173 28.1049 22.8419 30.2563 22.8013C30.3173 23.4513 30.3816 24.1098 30.4425 24.7513C29.0122 25.0086 27.6056 25.1863 26.2429 25.5317C25.1877 25.8264 24.159 26.2086 23.1673 26.6742C22.6425 26.9061 21.9214 27.2565 22.0382 27.8828C22.1212 28.3297 22.7153 28.7715 23.174 29.0406C24.6738 29.9158 26.3496 30.3085 28.044 30.5641C29.4794 30.7807 30.9216 30.8874 32.4247 31.0482V15.3856L28.9191 18.1802C28.4773 17.6318 28.0592 17.1121 27.6055 16.5518L31.9338 13.0818C32.3451 12.7432 32.7429 12.4047 33.1796 12.1034C33.3252 12.0052 33.6434 11.9646 33.7602 12.056C35.6391 13.5287 37.496 15.0267 39.3936 16.5468L38.0919 18.1802Z" fill="#C2247A"></path><path d="M27.6685 56.9787L24.0462 59.0776C24.1697 59.3366 24.2781 59.5854 24.3982 59.814C25.7236 62.4258 26.8544 65.1104 27.1929 68.0507C27.2884 68.8681 27.2684 69.6949 27.1337 70.5068C26.8036 72.4432 25.2141 73.403 23.3708 72.7361C22.465 72.3914 21.6155 71.914 20.8503 71.3193C18.9968 69.9126 17.558 68.1031 16.1734 66.1531L17.8745 64.9581C18.0438 65.1764 18.1894 65.3711 18.3366 65.5708C19.5774 67.2399 20.9045 68.831 22.631 70.0294C23.0476 70.3164 23.4971 70.5523 23.97 70.7319C24.6606 70.9943 25.0465 70.781 25.0922 70.0159C25.1549 69.1539 25.1162 68.2875 24.9771 67.4345C24.515 64.8531 23.4537 62.4867 22.2011 60.1406L8.6899 67.9457L12.8929 69.6063C12.6322 70.2647 12.3851 70.8843 12.1261 71.5461C10.1659 70.7827 8.25826 70.0413 6.35227 69.2965C5.12167 68.8158 5.11321 68.8124 5.30618 67.5005C5.60409 65.4693 5.91555 63.4499 6.23378 61.3475L8.29719 61.6539C8.07883 63.1367 7.87063 64.5501 7.63704 66.1278L21.1432 58.3244C20.1275 56.6554 19.0594 55.0862 17.7222 53.7337C16.8314 52.8043 15.8504 51.9657 14.7938 51.2302C13.3652 50.2671 12.7744 50.6395 12.7744 52.3508C12.7744 54.3567 13.4227 56.2119 14.1286 58.0501C14.22 58.2871 14.4028 58.5224 14.3977 58.7543C14.3876 59.1284 14.3723 59.6311 14.1438 59.8376C13.9836 59.9561 13.7988 60.0371 13.6031 60.0746C13.4074 60.1121 13.2057 60.1052 13.0131 60.0543C11.8282 59.6294 10.6738 59.0912 9.42961 58.5613C9.69706 57.9198 9.95266 57.3104 10.2336 56.6401L11.4947 57.1479C11.2662 56.1814 10.9632 55.286 10.8583 54.3634C10.7381 53.3038 10.6551 52.2052 10.7956 51.1473C11.0682 49.1347 12.6864 48.2037 14.6144 48.8452C16.3765 49.4326 17.7493 50.6175 18.9325 51.975C20.1935 53.4223 21.3023 54.9948 22.4872 56.5166C22.6564 56.7315 22.7902 56.9702 22.9764 57.2529L26.6123 55.1658L27.6685 56.9787Z" fill="#C2247A"></path><path d="M48.8038 70.4254C48.7327 69.9481 48.6701 69.5384 48.5888 68.9968C48.0251 69.5757 47.5732 70.0987 47.0654 70.5642C45.9025 71.6255 44.6837 72.6175 43.0621 72.8781C41.581 73.1168 40.4367 72.3974 39.9848 70.9654C39.5227 69.4978 39.7427 68.0302 40.0576 66.5762C40.5654 64.2064 41.4997 61.9873 42.5966 59.8341C42.71 59.609 42.8201 59.3839 42.9707 59.0843L39.3398 56.9768L40.3792 55.1707L44.0185 57.2578L44.4569 56.5909C46.0565 54.1602 47.7949 51.8412 50.1563 50.0875C50.8271 49.5785 51.5684 49.1697 52.3568 48.8739C54.2966 48.1781 55.8691 49.1633 56.2314 51.1895C56.4717 52.5335 56.2703 53.8453 55.9758 55.1504C55.5348 57.0105 54.8899 58.8163 54.0529 60.5349L52.306 59.7123C52.8849 57.8943 53.5027 56.1576 53.9648 54.3972C54.1883 53.5356 54.19 52.5944 54.1612 51.6888C54.1324 50.7832 53.6771 50.5429 52.8392 50.8882C52.4479 51.0472 52.0764 51.2512 51.7322 51.4959C49.2473 53.285 47.5004 55.7073 45.8331 58.309L59.3544 66.1175C59.1259 64.5669 58.9177 63.1552 58.696 61.6606L60.7628 61.344C61.1436 63.8357 61.5143 66.2766 61.9003 68.7919L54.8772 71.5426C54.6182 70.8909 54.3694 70.2748 54.107 69.5994L58.3185 67.9456L44.6956 60.0745C43.988 61.7892 43.2551 63.4413 42.6254 65.134C42.0871 66.583 41.7232 68.0895 41.8518 69.662C41.9517 70.8757 42.3596 71.1076 43.4684 70.5676C44.8428 69.8905 45.9126 68.8343 46.9198 67.7154C47.4428 67.1348 47.9354 66.5169 48.4111 65.9008C48.7259 65.4996 49.1017 65.2593 49.6146 65.393C50.1275 65.5267 50.3526 65.9008 50.4102 66.4188C50.5473 67.6528 50.7064 68.8834 50.8638 70.1664L48.8038 70.4254Z" fill="#C2247A"></path></g><defs><clipPath id="clip0_1756_349"><rect width="65" height="60.946" fill="white"></rect></clipPath></defs></svg> 